<svg width="1000" height="1000" viewBox="0 0 1000 1000" fill="none" xmlns="http://www.w3.org/2000/svg">
<g clip-path="url(#clip0_9786_528)">
<path d="M1000 0H0V1000H1000V0Z" fill="white"/>
<mask id="mask0_9786_528" style="mask-type:luminance" maskUnits="userSpaceOnUse" x="0" y="0" width="1000" height="1000">
<path d="M1000 0H0V1000H1000V0Z" fill="white"/>
</mask>
<g mask="url(#mask0_9786_528)">
<path d="M62.5 142.188H115.625C131.25 142.188 139.062 150 139.062 165.625V218.75H142.188V165.625C142.188 150 150 142.188 165.625 142.188H218.75V139.062H165.625C150 139.062 142.188 131.25 142.188 115.625V62.5H139.062V115.625C139.062 131.25 131.25 139.062 115.625 139.062H62.5V142.188Z" fill="#0A0A0A"/>
<path d="M62.5 423.438H115.625C131.25 423.438 139.062 431.25 139.062 446.875V500H142.188V446.875C142.188 431.25 150 423.438 165.625 423.438H218.75V420.312H165.625C150 420.312 142.188 412.5 142.188 396.875V343.75H139.062V396.875C139.062 412.5 131.25 420.312 115.625 420.312H62.5V423.438Z" fill="#0A0A0A"/>
<path d="M62.5 704.688H115.625C131.25 704.688 139.062 712.5 139.062 728.125V781.25H142.188V728.125C142.188 712.5 150 704.688 165.625 704.688H218.75V701.562H165.625C150 701.562 142.188 693.75 142.188 678.125V625H139.062V678.125C139.062 693.75 131.25 701.562 115.625 701.562H62.5V704.688Z" fill="#0A0A0A"/>
<path d="M62.5 985.938H115.625C131.25 985.938 139.062 993.75 139.062 1009.38V1062.5H142.188V1009.38C142.188 993.75 150 985.938 165.625 985.938H218.75V982.812H165.625C150 982.812 142.188 975 142.188 959.375V906.25H139.062V959.375C139.062 975 131.25 982.812 115.625 982.812H62.5V985.938Z" fill="#0A0A0A"/>
<path d="M343.75 142.188H396.875C412.5 142.188 420.312 150 420.312 165.625V218.75H423.438V165.625C423.438 150 431.25 142.188 446.875 142.188H500V139.062H446.875C431.25 139.062 423.438 131.25 423.438 115.625V62.5H420.312V115.625C420.312 131.25 412.5 139.062 396.875 139.062H343.75V142.188Z" fill="#0A0A0A"/>
<path d="M343.75 423.438H396.875C412.5 423.438 420.312 431.25 420.312 446.875V500H423.438V446.875C423.438 431.25 431.25 423.438 446.875 423.438H500V420.312H446.875C431.25 420.312 423.438 412.5 423.438 396.875V343.75H420.312V396.875C420.312 412.5 412.5 420.312 396.875 420.312H343.75V423.438Z" fill="#0A0A0A"/>
<path d="M343.75 704.688H396.875C412.5 704.688 420.312 712.5 420.312 728.125V781.25H423.438V728.125C423.438 712.5 431.25 704.688 446.875 704.688H500V701.562H446.875C431.25 701.562 423.438 693.75 423.438 678.125V625H420.312V678.125C420.312 693.75 412.5 701.562 396.875 701.562H343.75V704.688Z" fill="#0A0A0A"/>
<path d="M343.75 985.938H396.875C412.5 985.938 420.312 993.75 420.312 1009.38V1062.5H423.438V1009.38C423.438 993.75 431.25 985.938 446.875 985.938H500V982.812H446.875C431.25 982.812 423.438 975 423.438 959.375V906.25H420.312V959.375C420.312 975 412.5 982.812 396.875 982.812H343.75V985.938Z" fill="#0A0A0A"/>
<path d="M625 142.188H678.125C693.75 142.188 701.562 150 701.562 165.625V218.75H704.688V165.625C704.688 150 712.5 142.188 728.125 142.188H781.25V139.062H728.125C712.5 139.062 704.688 131.25 704.688 115.625V62.5H701.562V115.625C701.562 131.25 693.75 139.062 678.125 139.062H625V142.188Z" fill="#0A0A0A"/>
<path d="M625 423.438H678.125C693.75 423.438 701.562 431.25 701.562 446.875V500H704.688V446.875C704.688 431.25 712.5 423.438 728.125 423.438H781.25V420.312H728.125C712.5 420.312 704.688 412.5 704.688 396.875V343.75H701.562V396.875C701.562 412.5 693.75 420.312 678.125 420.312H625V423.438Z" fill="#0A0A0A"/>
<path d="M625 704.688H678.125C693.75 704.688 701.562 712.5 701.562 728.125V781.25H704.688V728.125C704.688 712.5 712.5 704.688 728.125 704.688H781.25V701.562H728.125C712.5 701.562 704.688 693.75 704.688 678.125V625H701.562V678.125C701.562 693.75 693.75 701.562 678.125 701.562H625V704.688Z" fill="#0A0A0A"/>
<path d="M625 985.938H678.125C693.75 985.938 701.562 993.75 701.562 1009.38V1062.5H704.688V1009.38C704.688 993.75 712.5 985.938 728.125 985.938H781.25V982.812H728.125C712.5 982.812 704.688 975 704.688 959.375V906.25H701.562V959.375C701.562 975 693.75 982.812 678.125 982.812H625V985.938Z" fill="#0A0A0A"/>
<path d="M906.25 142.188H959.375C975 142.188 982.812 150 982.812 165.625V218.75H985.938V165.625C985.938 150 993.75 142.188 1009.38 142.188H1062.5V139.062H1009.38C993.75 139.062 985.938 131.25 985.938 115.625V62.5H982.812V115.625C982.812 131.25 975 139.062 959.375 139.062H906.25V142.188Z" fill="#0A0A0A"/>
<path d="M906.25 423.438H959.375C975 423.438 982.812 431.25 982.812 446.875V500H985.938V446.875C985.938 431.25 993.75 423.438 1009.38 423.438H1062.5V420.312H1009.38C993.75 420.312 985.938 412.5 985.938 396.875V343.75H982.812V396.875C982.812 412.5 975 420.312 959.375 420.312H906.25V423.438Z" fill="#0A0A0A"/>
<path d="M906.25 704.688H959.375C975 704.688 982.812 712.5 982.812 728.125V781.25H985.938V728.125C985.938 712.5 993.75 704.688 1009.38 704.688H1062.5V701.562H1009.38C993.75 701.562 985.938 693.75 985.938 678.125V625H982.812V678.125C982.812 693.75 975 701.562 959.375 701.562H906.25V704.688Z" fill="#0A0A0A"/>
<path d="M906.25 985.938H959.375C975 985.938 982.812 993.75 982.812 1009.38V1062.5H985.938V1009.38C985.938 993.75 993.75 985.938 1009.38 985.938H1062.5V982.812H1009.38C993.75 982.812 985.938 975 985.938 959.375V906.25H982.812V959.375C982.812 975 975 982.812 959.375 982.812H906.25V985.938Z" fill="#0A0A0A"/>
<path d="M-78.125 1.5625H-25C-9.375 1.5625 -1.5625 9.375 -1.5625 25V78.125H1.5625V25C1.5625 9.375 9.375 1.5625 25 1.5625H78.125V-1.5625H25C9.375 -1.5625 1.5625 -9.375 1.5625 -25V-78.125H-1.5625V-25C-1.5625 -9.375 -9.375 -1.5625 -25 -1.5625H-78.125V1.5625Z" fill="#0A0A0A"/>
<path d="M-78.125 282.812H-25C-9.375 282.812 -1.5625 290.625 -1.5625 306.25V359.375H1.5625V306.25C1.5625 290.625 9.375 282.812 25 282.812H78.125V279.688H25C9.375 279.688 1.5625 271.875 1.5625 256.25V203.125H-1.5625V256.25C-1.5625 271.875 -9.375 279.688 -25 279.688H-78.125V282.812Z" fill="#0A0A0A"/>
<path d="M-78.125 564.062H-25C-9.375 564.062 -1.5625 571.875 -1.5625 587.5V640.625H1.5625V587.5C1.5625 571.875 9.375 564.062 25 564.062H78.125V560.938H25C9.375 560.938 1.5625 553.125 1.5625 537.5V484.375H-1.5625V537.5C-1.5625 553.125 -9.375 560.938 -25 560.938H-78.125V564.062Z" fill="#0A0A0A"/>
<path d="M-78.125 845.312H-25C-9.375 845.312 -1.5625 853.125 -1.5625 868.75V921.875H1.5625V868.75C1.5625 853.125 9.375 845.312 25 845.312H78.125V842.188H25C9.375 842.188 1.5625 834.375 1.5625 818.75V765.625H-1.5625V818.75C-1.5625 834.375 -9.375 842.188 -25 842.188H-78.125V845.312Z" fill="#0A0A0A"/>
<path d="M203.125 1.5625H256.25C271.875 1.5625 279.688 9.375 279.688 25V78.125H282.812V25C282.812 9.375 290.625 1.5625 306.25 1.5625H359.375V-1.5625H306.25C290.625 -1.5625 282.812 -9.375 282.812 -25V-78.125H279.688V-25C279.688 -9.375 271.875 -1.5625 256.25 -1.5625H203.125V1.5625Z" fill="#0A0A0A"/>
<path d="M203.125 282.812H256.25C271.875 282.812 279.688 290.625 279.688 306.25V359.375H282.812V306.25C282.812 290.625 290.625 282.812 306.25 282.812H359.375V279.688H306.25C290.625 279.688 282.812 271.875 282.812 256.25V203.125H279.688V256.25C279.688 271.875 271.875 279.688 256.25 279.688H203.125V282.812Z" fill="#0A0A0A"/>
<path d="M203.125 564.062H256.25C271.875 564.062 279.688 571.875 279.688 587.5V640.625H282.812V587.5C282.812 571.875 290.625 564.062 306.25 564.062H359.375V560.938H306.25C290.625 560.938 282.812 553.125 282.812 537.5V484.375H279.688V537.5C279.688 553.125 271.875 560.938 256.25 560.938H203.125V564.062Z" fill="#0A0A0A"/>
<path d="M203.125 845.312H256.25C271.875 845.312 279.688 853.125 279.688 868.75V921.875H282.812V868.75C282.812 853.125 290.625 845.312 306.25 845.312H359.375V842.188H306.25C290.625 842.188 282.812 834.375 282.812 818.75V765.625H279.688V818.75C279.688 834.375 271.875 842.188 256.25 842.188H203.125V845.312Z" fill="#0A0A0A"/>
<path d="M484.375 1.5625H537.5C553.125 1.5625 560.938 9.375 560.938 25V78.125H564.062V25C564.062 9.375 571.875 1.5625 587.5 1.5625H640.625V-1.5625H587.5C571.875 -1.5625 564.062 -9.375 564.062 -25V-78.125H560.938V-25C560.938 -9.375 553.125 -1.5625 537.5 -1.5625H484.375V1.5625Z" fill="#0A0A0A"/>
<path d="M484.375 282.812H537.5C553.125 282.812 560.938 290.625 560.938 306.25V359.375H564.062V306.25C564.062 290.625 571.875 282.812 587.5 282.812H640.625V279.688H587.5C571.875 279.688 564.062 271.875 564.062 256.25V203.125H560.938V256.25C560.938 271.875 553.125 279.688 537.5 279.688H484.375V282.812Z" fill="#0A0A0A"/>
<path d="M484.375 564.062H537.5C553.125 564.062 560.938 571.875 560.938 587.5V640.625H564.062V587.5C564.062 571.875 571.875 564.062 587.5 564.062H640.625V560.938H587.5C571.875 560.938 564.062 553.125 564.062 537.5V484.375H560.938V537.5C560.938 553.125 553.125 560.938 537.5 560.938H484.375V564.062Z" fill="#0A0A0A"/>
<path d="M484.375 845.312H537.5C553.125 845.312 560.938 853.125 560.938 868.75V921.875H564.062V868.75C564.062 853.125 571.875 845.312 587.5 845.312H640.625V842.188H587.5C571.875 842.188 564.062 834.375 564.062 818.75V765.625H560.938V818.75C560.938 834.375 553.125 842.188 537.5 842.188H484.375V845.312Z" fill="#0A0A0A"/>
<path d="M765.625 1.5625H818.75C834.375 1.5625 842.188 9.375 842.188 25V78.125H845.312V25C845.312 9.375 853.125 1.5625 868.75 1.5625H921.875V-1.5625H868.75C853.125 -1.5625 845.312 -9.375 845.312 -25V-78.125H842.188V-25C842.188 -9.375 834.375 -1.5625 818.75 -1.5625H765.625V1.5625Z" fill="#0A0A0A"/>
<path d="M765.625 282.812H818.75C834.375 282.812 842.188 290.625 842.188 306.25V359.375H845.312V306.25C845.312 290.625 853.125 282.812 868.75 282.812H921.875V279.688H868.75C853.125 279.688 845.312 271.875 845.312 256.25V203.125H842.188V256.25C842.188 271.875 834.375 279.688 818.75 279.688H765.625V282.812Z" fill="#0A0A0A"/>
<path d="M765.625 564.062H818.75C834.375 564.062 842.188 571.875 842.188 587.5V640.625H845.312V587.5C845.312 571.875 853.125 564.062 868.75 564.062H921.875V560.938H868.75C853.125 560.938 845.312 553.125 845.312 537.5V484.375H842.188V537.5C842.188 553.125 834.375 560.938 818.75 560.938H765.625V564.062Z" fill="#0A0A0A"/>
<path d="M765.625 845.312H818.75C834.375 845.312 842.188 853.125 842.188 868.75V921.875H845.312V868.75C845.312 853.125 853.125 845.312 868.75 845.312H921.875V842.188H868.75C853.125 842.188 845.312 834.375 845.312 818.75V765.625H842.188V818.75C842.188 834.375 834.375 842.188 818.75 842.188H765.625V845.312Z" fill="#0A0A0A"/>
</g>
</g>
<defs>
<clipPath id="clip0_9786_528">
<rect width="1000" height="1000" fill="white"/>
</clipPath>
</defs>
</svg>
