<svg width="484" height="212" viewBox="0 0 484 212" fill="none" xmlns="http://www.w3.org/2000/svg">
<g filter="url(#filter0_d_9779_111)">
<path d="M294 1H29C20.1634 1 13 8.16344 13 17V118.5C13 127.337 20.1634 134.5 29 134.5H70.5C79.3366 134.5 86.5 141.663 86.5 150.5V182.5C86.5 191.337 93.6634 198.5 102.5 198.5H466.5C475.337 198.5 482.5 191.337 482.5 182.5V96.5C482.5 87.6634 475.337 80.5 466.5 80.5H326C317.163 80.5 310 73.3366 310 64.5V17C310 8.16344 302.837 1 294 1Z" fill="white"/>
<path d="M294 1H29C20.1634 1 13 8.16344 13 17V118.5C13 127.337 20.1634 134.5 29 134.5H70.5C79.3366 134.5 86.5 141.663 86.5 150.5V182.5C86.5 191.337 93.6634 198.5 102.5 198.5H466.5C475.337 198.5 482.5 191.337 482.5 182.5V96.5C482.5 87.6634 475.337 80.5 466.5 80.5H326C317.163 80.5 310 73.3366 310 64.5V17C310 8.16344 302.837 1 294 1Z" stroke="black" stroke-width="2"/>
</g>
<path d="M78.45 75.8C73.15 75.8 68.7167 74.0167 65.15 70.45C61.6167 66.8833 59.85 62.4333 59.85 57.1C59.85 51.7667 61.6167 47.3333 65.15 43.8C68.6833 40.2 73.1167 38.4 78.45 38.4C83.85 38.4 88.2333 40.35 91.6 44.25L88.3 47.45C85.7333 44.35 82.45 42.8 78.45 42.8C74.4833 42.8 71.1667 44.1333 68.5 46.8C65.8667 49.4333 64.55 52.8667 64.55 57.1C64.55 61.3333 65.8667 64.7667 68.5 67.4C71.1667 70.0667 74.4833 71.4 78.45 71.4C82.6167 71.4 86.2333 69.65 89.3 66.15L92.65 69.4C90.95 71.4333 88.8667 73.0167 86.4 74.15C83.9333 75.25 81.2833 75.8 78.45 75.8ZM94.8492 62.75C94.8492 58.9833 96.0326 55.8667 98.3992 53.4C100.799 50.9333 103.816 49.7 107.449 49.7C111.083 49.7 114.083 50.9333 116.449 53.4C118.849 55.8667 120.049 58.9833 120.049 62.75C120.049 66.55 118.849 69.6667 116.449 72.1C114.083 74.5667 111.083 75.8 107.449 75.8C103.816 75.8 100.799 74.5667 98.3992 72.1C96.0326 69.6333 94.8492 66.5167 94.8492 62.75ZM99.4492 62.75C99.4492 65.3833 100.216 67.5167 101.749 69.15C103.283 70.7833 105.183 71.6 107.449 71.6C109.716 71.6 111.616 70.7833 113.149 69.15C114.683 67.5167 115.449 65.3833 115.449 62.75C115.449 60.15 114.683 58.0333 113.149 56.4C111.583 54.7333 109.683 53.9 107.449 53.9C105.216 53.9 103.316 54.7333 101.749 56.4C100.216 58.0333 99.4492 60.15 99.4492 62.75ZM123.739 50.5H128.139V53.9H128.339C129.039 52.7 130.106 51.7 131.539 50.9C133.006 50.1 134.523 49.7 136.089 49.7C139.089 49.7 141.389 50.5667 142.989 52.3C144.623 54 145.439 56.4333 145.439 59.6V75H140.839V59.9C140.739 55.9 138.723 53.9 134.789 53.9C132.956 53.9 131.423 54.65 130.189 56.15C128.956 57.6167 128.339 59.3833 128.339 61.45V75H123.739V50.5ZM159.27 75.4C157.27 75.4 155.603 74.7833 154.27 73.55C152.97 72.3167 152.303 70.6 152.27 68.4V54.7H147.97V50.5H152.27V43H156.87V50.5H162.87V54.7H156.87V66.9C156.87 68.5333 157.186 69.65 157.82 70.25C158.453 70.8167 159.17 71.1 159.97 71.1C160.336 71.1 160.686 71.0667 161.02 71C161.386 70.9 161.72 70.7833 162.02 70.65L163.47 74.75C162.27 75.1833 160.87 75.4 159.27 75.4ZM178.001 75.8C174.401 75.8 171.435 74.5667 169.101 72.1C166.768 69.6333 165.601 66.5167 165.601 62.75C165.601 59.0167 166.735 55.9167 169.001 53.45C171.268 50.95 174.168 49.7 177.701 49.7C181.335 49.7 184.218 50.8833 186.351 53.25C188.518 55.5833 189.601 58.8667 189.601 63.1L189.551 63.6H170.301C170.368 66 171.168 67.9333 172.701 69.4C174.235 70.8667 176.068 71.6 178.201 71.6C181.135 71.6 183.435 70.1333 185.101 67.2L189.201 69.2C188.101 71.2667 186.568 72.8833 184.601 74.05C182.668 75.2167 180.468 75.8 178.001 75.8ZM170.651 59.8H184.701C184.568 58.1 183.868 56.7 182.601 55.6C181.368 54.4667 179.701 53.9 177.601 53.9C175.868 53.9 174.368 54.4333 173.101 55.5C171.868 56.5667 171.051 58 170.651 59.8ZM193.808 50.5H198.208V53.9H198.408C199.108 52.7 200.174 51.7 201.608 50.9C203.074 50.1 204.591 49.7 206.158 49.7C209.158 49.7 211.458 50.5667 213.058 52.3C214.691 54 215.508 56.4333 215.508 59.6V75H210.908V59.9C210.808 55.9 208.791 53.9 204.858 53.9C203.024 53.9 201.491 54.65 200.258 56.15C199.024 57.6167 198.408 59.3833 198.408 61.45V75H193.808V50.5ZM229.338 75.4C227.338 75.4 225.671 74.7833 224.338 73.55C223.038 72.3167 222.371 70.6 222.338 68.4V54.7H218.038V50.5H222.338V43H226.938V50.5H232.938V54.7H226.938V66.9C226.938 68.5333 227.255 69.65 227.888 70.25C228.521 70.8167 229.238 71.1 230.038 71.1C230.405 71.1 230.755 71.0667 231.088 71C231.455 70.9 231.788 70.7833 232.088 70.65L233.538 74.75C232.338 75.1833 230.938 75.4 229.338 75.4Z" fill="black"/>
<path d="M123.6 155V119.2H134.55C140.017 119.2 144.4 120.85 147.7 124.15C151.033 127.45 152.7 131.767 152.7 137.1C152.7 142.467 151.033 146.8 147.7 150.1C144.4 153.367 140.017 155 134.55 155H123.6ZM128.2 123.6V150.6H134.55C138.717 150.6 142 149.417 144.4 147.05C146.8 144.65 148 141.333 148 137.1C148 132.9 146.8 129.6 144.4 127.2C142 124.8 138.717 123.6 134.55 123.6H128.2ZM155.238 142.75C155.238 138.983 156.421 135.867 158.788 133.4C161.188 130.933 164.205 129.7 167.838 129.7C171.471 129.7 174.471 130.933 176.838 133.4C179.238 135.867 180.438 138.983 180.438 142.75C180.438 146.55 179.238 149.667 176.838 152.1C174.471 154.567 171.471 155.8 167.838 155.8C164.205 155.8 161.188 154.567 158.788 152.1C156.421 149.633 155.238 146.517 155.238 142.75ZM159.838 142.75C159.838 145.383 160.605 147.517 162.138 149.15C163.671 150.783 165.571 151.6 167.838 151.6C170.105 151.6 172.005 150.783 173.538 149.15C175.071 147.517 175.838 145.383 175.838 142.75C175.838 140.15 175.071 138.033 173.538 136.4C171.971 134.733 170.071 133.9 167.838 133.9C165.605 133.9 163.705 134.733 162.138 136.4C160.605 138.033 159.838 140.15 159.838 142.75ZM195.816 155.8C192.183 155.8 189.166 154.567 186.766 152.1C184.4 149.567 183.216 146.45 183.216 142.75C183.216 138.983 184.4 135.867 186.766 133.4C189.166 130.933 192.183 129.7 195.816 129.7C198.316 129.7 200.5 130.333 202.366 131.6C204.233 132.833 205.633 134.55 206.566 136.75L202.366 138.5C201.066 135.433 198.783 133.9 195.516 133.9C193.416 133.9 191.6 134.75 190.066 136.45C188.566 138.15 187.816 140.25 187.816 142.75C187.816 145.25 188.566 147.35 190.066 149.05C191.6 150.75 193.416 151.6 195.516 151.6C198.883 151.6 201.25 150.067 202.616 147L206.716 148.75C205.816 150.95 204.4 152.683 202.466 153.95C200.566 155.183 198.35 155.8 195.816 155.8ZM232.239 155H227.839V151.6H227.639C226.939 152.8 225.856 153.8 224.389 154.6C222.956 155.4 221.456 155.8 219.889 155.8C216.889 155.8 214.573 154.95 212.939 153.25C211.339 151.517 210.539 149.067 210.539 145.9V130.5H215.139V145.6C215.239 149.6 217.256 151.6 221.189 151.6C223.023 151.6 224.556 150.867 225.789 149.4C227.023 147.9 227.639 146.117 227.639 144.05V130.5H232.239V155ZM242.439 155H237.839V130.5H242.239V133.9H242.439C243.139 132.7 244.206 131.7 245.639 130.9C247.106 130.1 248.556 129.7 249.989 129.7C251.789 129.7 253.372 130.117 254.739 130.95C256.106 131.783 257.106 132.933 257.739 134.4C259.772 131.267 262.589 129.7 266.189 129.7C269.022 129.7 271.206 130.567 272.739 132.3C274.272 134.033 275.039 136.5 275.039 139.7V155H270.439V140.4C270.439 138.1 270.022 136.45 269.189 135.45C268.356 134.417 266.956 133.9 264.989 133.9C263.222 133.9 261.739 134.65 260.539 136.15C259.339 137.65 258.739 139.417 258.739 141.45V155H254.139V140.4C254.139 138.1 253.722 136.45 252.889 135.45C252.056 134.417 250.656 133.9 248.689 133.9C246.922 133.9 245.439 134.65 244.239 136.15C243.039 137.65 242.439 139.417 242.439 141.45V155ZM291.417 155.8C287.817 155.8 284.851 154.567 282.517 152.1C280.184 149.633 279.017 146.517 279.017 142.75C279.017 139.017 280.151 135.917 282.417 133.45C284.684 130.95 287.584 129.7 291.117 129.7C294.751 129.7 297.634 130.883 299.767 133.25C301.934 135.583 303.017 138.867 303.017 143.1L302.967 143.6H283.717C283.784 146 284.584 147.933 286.117 149.4C287.651 150.867 289.484 151.6 291.617 151.6C294.551 151.6 296.851 150.133 298.517 147.2L302.617 149.2C301.517 151.267 299.984 152.883 298.017 154.05C296.084 155.217 293.884 155.8 291.417 155.8ZM284.067 139.8H298.117C297.984 138.1 297.284 136.7 296.017 135.6C294.784 134.467 293.117 133.9 291.017 133.9C289.284 133.9 287.784 134.433 286.517 135.5C285.284 136.567 284.467 138 284.067 139.8ZM307.224 130.5H311.624V133.9H311.824C312.524 132.7 313.59 131.7 315.024 130.9C316.49 130.1 318.007 129.7 319.574 129.7C322.574 129.7 324.874 130.567 326.474 132.3C328.107 134 328.924 136.433 328.924 139.6V155H324.324V139.9C324.224 135.9 322.207 133.9 318.274 133.9C316.44 133.9 314.907 134.65 313.674 136.15C312.44 137.617 311.824 139.383 311.824 141.45V155H307.224V130.5ZM342.754 155.4C340.754 155.4 339.087 154.783 337.754 153.55C336.454 152.317 335.787 150.6 335.754 148.4V134.7H331.454V130.5H335.754V123H340.354V130.5H346.354V134.7H340.354V146.9C340.354 148.533 340.671 149.65 341.304 150.25C341.937 150.817 342.654 151.1 343.454 151.1C343.821 151.1 344.171 151.067 344.504 151C344.871 150.9 345.204 150.783 345.504 150.65L346.954 154.75C345.754 155.183 344.354 155.4 342.754 155.4ZM353.591 147.5C353.591 148.7 354.091 149.7 355.091 150.5C356.125 151.3 357.325 151.7 358.691 151.7C360.625 151.7 362.341 150.983 363.841 149.55C365.375 148.117 366.141 146.433 366.141 144.5C364.708 143.367 362.708 142.8 360.141 142.8C358.275 142.8 356.708 143.25 355.441 144.15C354.208 145.05 353.591 146.167 353.591 147.5ZM359.541 129.7C362.941 129.7 365.625 130.617 367.591 132.45C369.558 134.25 370.541 136.733 370.541 139.9V155H366.141V151.6H365.941C364.041 154.4 361.508 155.8 358.341 155.8C355.641 155.8 353.375 155 351.541 153.4C349.741 151.8 348.841 149.8 348.841 147.4C348.841 144.867 349.791 142.85 351.691 141.35C353.625 139.85 356.191 139.1 359.391 139.1C362.125 139.1 364.375 139.6 366.141 140.6V139.55C366.141 137.95 365.508 136.6 364.241 135.5C362.975 134.367 361.491 133.8 359.791 133.8C357.225 133.8 355.191 134.883 353.691 137.05L349.641 134.5C351.875 131.3 355.175 129.7 359.541 129.7ZM384.941 155.4C382.941 155.4 381.275 154.783 379.941 153.55C378.641 152.317 377.975 150.6 377.941 148.4V134.7H373.641V130.5H377.941V123H382.541V130.5H388.541V134.7H382.541V146.9C382.541 148.533 382.858 149.65 383.491 150.25C384.125 150.817 384.841 151.1 385.641 151.1C386.008 151.1 386.358 151.067 386.691 151C387.058 150.9 387.391 150.783 387.691 150.65L389.141 154.75C387.941 155.183 386.541 155.4 384.941 155.4ZM399.111 122.05C399.111 122.95 398.795 123.717 398.161 124.35C397.528 124.983 396.761 125.3 395.861 125.3C394.961 125.3 394.195 124.983 393.561 124.35C392.928 123.717 392.611 122.95 392.611 122.05C392.611 121.15 392.928 120.383 393.561 119.75C394.195 119.117 394.961 118.8 395.861 118.8C396.761 118.8 397.528 119.117 398.161 119.75C398.795 120.383 399.111 121.15 399.111 122.05ZM398.161 130.5V155H393.561V130.5H398.161ZM402.504 142.75C402.504 138.983 403.687 135.867 406.054 133.4C408.454 130.933 411.47 129.7 415.104 129.7C418.737 129.7 421.737 130.933 424.104 133.4C426.504 135.867 427.704 138.983 427.704 142.75C427.704 146.55 426.504 149.667 424.104 152.1C421.737 154.567 418.737 155.8 415.104 155.8C411.47 155.8 408.454 154.567 406.054 152.1C403.687 149.633 402.504 146.517 402.504 142.75ZM407.104 142.75C407.104 145.383 407.87 147.517 409.404 149.15C410.937 150.783 412.837 151.6 415.104 151.6C417.37 151.6 419.27 150.783 420.804 149.15C422.337 147.517 423.104 145.383 423.104 142.75C423.104 140.15 422.337 138.033 420.804 136.4C419.237 134.733 417.337 133.9 415.104 133.9C412.87 133.9 410.97 134.733 409.404 136.4C407.87 138.033 407.104 140.15 407.104 142.75ZM431.394 130.5H435.794V133.9H435.994C436.694 132.7 437.76 131.7 439.194 130.9C440.66 130.1 442.177 129.7 443.744 129.7C446.744 129.7 449.044 130.567 450.644 132.3C452.277 134 453.094 136.433 453.094 139.6V155H448.494V139.9C448.394 135.9 446.377 133.9 442.444 133.9C440.61 133.9 439.077 134.65 437.844 136.15C436.61 137.617 435.994 139.383 435.994 141.45V155H431.394V130.5Z" fill="black"/>
<defs>
<filter id="filter0_d_9779_111" x="0" y="0" width="483.5" height="211.5" filterUnits="userSpaceOnUse" color-interpolation-filters="sRGB">
<feFlood flood-opacity="0" result="BackgroundImageFix"/>
<feColorMatrix in="SourceAlpha" type="matrix" values="0 0 0 0 0 0 0 0 0 0 0 0 0 0 0 0 0 0 127 0" result="hardAlpha"/>
<feOffset dx="-12" dy="12"/>
<feComposite in2="hardAlpha" operator="out"/>
<feColorMatrix type="matrix" values="0 0 0 0 0.958714 0 0 0 0 0 0 0 0 0 0 0 0 0 1 0"/>
<feBlend mode="normal" in2="BackgroundImageFix" result="effect1_dropShadow_9779_111"/>
<feBlend mode="normal" in="SourceGraphic" in2="effect1_dropShadow_9779_111" result="shape"/>
</filter>
</defs>
</svg>
