<svg width="484" height="212" viewBox="0 0 484 212" fill="none" xmlns="http://www.w3.org/2000/svg">
<path d="M281 14H16C7.16344 14 0 21.1634 0 30V131.5C0 140.337 7.16344 147.5 16 147.5H57.5C66.3366 147.5 73.5 154.663 73.5 163.5V195.5C73.5 204.337 80.6634 211.5 89.5 211.5H453.5C462.337 211.5 469.5 204.337 469.5 195.5V109.5C469.5 100.663 462.337 93.5 453.5 93.5H313C304.163 93.5 297 86.3366 297 77.5V30C297 21.1634 289.837 14 281 14Z" fill="#F40000"/>
<path d="M30 1H295C303.284 1 310 7.71573 310 16V63.5C310 72.8888 317.611 80.5 327 80.5H467.5C475.784 80.5 482.5 87.2157 482.5 95.5V181.5C482.5 189.784 475.784 196.5 467.5 196.5H103.5C95.2157 196.5 88.5 189.784 88.5 181.5V149.5C88.5 140.111 80.8888 132.5 71.5 132.5H30C21.7157 132.5 15 125.784 15 117.5V16C15 7.71573 21.7157 1 30 1Z" fill="white" stroke="black" stroke-width="2"/>
<path d="M79.45 74.8C74.15 74.8 69.7167 73.0167 66.15 69.45C62.6167 65.8833 60.85 61.4333 60.85 56.1C60.85 50.7667 62.6167 46.3333 66.15 42.8C69.6833 39.2 74.1167 37.4 79.45 37.4C84.85 37.4 89.2333 39.35 92.6 43.25L89.3 46.45C86.7333 43.35 83.45 41.8 79.45 41.8C75.4833 41.8 72.1667 43.1333 69.5 45.8C66.8667 48.4333 65.55 51.8667 65.55 56.1C65.55 60.3333 66.8667 63.7667 69.5 66.4C72.1667 69.0667 75.4833 70.4 79.45 70.4C83.6167 70.4 87.2333 68.65 90.3 65.15L93.65 68.4C91.95 70.4333 89.8667 72.0167 87.4 73.15C84.9333 74.25 82.2833 74.8 79.45 74.8ZM95.8492 61.75C95.8492 57.9833 97.0326 54.8667 99.3992 52.4C101.799 49.9333 104.816 48.7 108.449 48.7C112.083 48.7 115.083 49.9333 117.449 52.4C119.849 54.8667 121.049 57.9833 121.049 61.75C121.049 65.55 119.849 68.6667 117.449 71.1C115.083 73.5667 112.083 74.8 108.449 74.8C104.816 74.8 101.799 73.5667 99.3992 71.1C97.0326 68.6333 95.8492 65.5167 95.8492 61.75ZM100.449 61.75C100.449 64.3833 101.216 66.5167 102.749 68.15C104.283 69.7833 106.183 70.6 108.449 70.6C110.716 70.6 112.616 69.7833 114.149 68.15C115.683 66.5167 116.449 64.3833 116.449 61.75C116.449 59.15 115.683 57.0333 114.149 55.4C112.583 53.7333 110.683 52.9 108.449 52.9C106.216 52.9 104.316 53.7333 102.749 55.4C101.216 57.0333 100.449 59.15 100.449 61.75ZM124.739 49.5H129.139V52.9H129.339C130.039 51.7 131.106 50.7 132.539 49.9C134.006 49.1 135.523 48.7 137.089 48.7C140.089 48.7 142.389 49.5667 143.989 51.3C145.623 53 146.439 55.4333 146.439 58.6V74H141.839V58.9C141.739 54.9 139.723 52.9 135.789 52.9C133.956 52.9 132.423 53.65 131.189 55.15C129.956 56.6167 129.339 58.3833 129.339 60.45V74H124.739V49.5ZM160.27 74.4C158.27 74.4 156.603 73.7833 155.27 72.55C153.97 71.3167 153.303 69.6 153.27 67.4V53.7H148.97V49.5H153.27V42H157.87V49.5H163.87V53.7H157.87V65.9C157.87 67.5333 158.186 68.65 158.82 69.25C159.453 69.8167 160.17 70.1 160.97 70.1C161.336 70.1 161.686 70.0667 162.02 70C162.386 69.9 162.72 69.7833 163.02 69.65L164.47 73.75C163.27 74.1833 161.87 74.4 160.27 74.4ZM179.001 74.8C175.401 74.8 172.435 73.5667 170.101 71.1C167.768 68.6333 166.601 65.5167 166.601 61.75C166.601 58.0167 167.735 54.9167 170.001 52.45C172.268 49.95 175.168 48.7 178.701 48.7C182.335 48.7 185.218 49.8833 187.351 52.25C189.518 54.5833 190.601 57.8667 190.601 62.1L190.551 62.6H171.301C171.368 65 172.168 66.9333 173.701 68.4C175.235 69.8667 177.068 70.6 179.201 70.6C182.135 70.6 184.435 69.1333 186.101 66.2L190.201 68.2C189.101 70.2667 187.568 71.8833 185.601 73.05C183.668 74.2167 181.468 74.8 179.001 74.8ZM171.651 58.8H185.701C185.568 57.1 184.868 55.7 183.601 54.6C182.368 53.4667 180.701 52.9 178.601 52.9C176.868 52.9 175.368 53.4333 174.101 54.5C172.868 55.5667 172.051 57 171.651 58.8ZM194.808 49.5H199.208V52.9H199.408C200.108 51.7 201.174 50.7 202.608 49.9C204.074 49.1 205.591 48.7 207.158 48.7C210.158 48.7 212.458 49.5667 214.058 51.3C215.691 53 216.508 55.4333 216.508 58.6V74H211.908V58.9C211.808 54.9 209.791 52.9 205.858 52.9C204.024 52.9 202.491 53.65 201.258 55.15C200.024 56.6167 199.408 58.3833 199.408 60.45V74H194.808V49.5ZM230.338 74.4C228.338 74.4 226.671 73.7833 225.338 72.55C224.038 71.3167 223.371 69.6 223.338 67.4V53.7H219.038V49.5H223.338V42H227.938V49.5H233.938V53.7H227.938V65.9C227.938 67.5333 228.255 68.65 228.888 69.25C229.521 69.8167 230.238 70.1 231.038 70.1C231.405 70.1 231.755 70.0667 232.088 70C232.455 69.9 232.788 69.7833 233.088 69.65L234.538 73.75C233.338 74.1833 231.938 74.4 230.338 74.4Z" fill="black"/>
<path d="M124.6 154V118.2H135.55C141.017 118.2 145.4 119.85 148.7 123.15C152.033 126.45 153.7 130.767 153.7 136.1C153.7 141.467 152.033 145.8 148.7 149.1C145.4 152.367 141.017 154 135.55 154H124.6ZM129.2 122.6V149.6H135.55C139.717 149.6 143 148.417 145.4 146.05C147.8 143.65 149 140.333 149 136.1C149 131.9 147.8 128.6 145.4 126.2C143 123.8 139.717 122.6 135.55 122.6H129.2ZM156.238 141.75C156.238 137.983 157.421 134.867 159.788 132.4C162.188 129.933 165.205 128.7 168.838 128.7C172.471 128.7 175.471 129.933 177.838 132.4C180.238 134.867 181.438 137.983 181.438 141.75C181.438 145.55 180.238 148.667 177.838 151.1C175.471 153.567 172.471 154.8 168.838 154.8C165.205 154.8 162.188 153.567 159.788 151.1C157.421 148.633 156.238 145.517 156.238 141.75ZM160.838 141.75C160.838 144.383 161.605 146.517 163.138 148.15C164.671 149.783 166.571 150.6 168.838 150.6C171.105 150.6 173.005 149.783 174.538 148.15C176.071 146.517 176.838 144.383 176.838 141.75C176.838 139.15 176.071 137.033 174.538 135.4C172.971 133.733 171.071 132.9 168.838 132.9C166.605 132.9 164.705 133.733 163.138 135.4C161.605 137.033 160.838 139.15 160.838 141.75ZM196.816 154.8C193.183 154.8 190.166 153.567 187.766 151.1C185.4 148.567 184.216 145.45 184.216 141.75C184.216 137.983 185.4 134.867 187.766 132.4C190.166 129.933 193.183 128.7 196.816 128.7C199.316 128.7 201.5 129.333 203.366 130.6C205.233 131.833 206.633 133.55 207.566 135.75L203.366 137.5C202.066 134.433 199.783 132.9 196.516 132.9C194.416 132.9 192.6 133.75 191.066 135.45C189.566 137.15 188.816 139.25 188.816 141.75C188.816 144.25 189.566 146.35 191.066 148.05C192.6 149.75 194.416 150.6 196.516 150.6C199.883 150.6 202.25 149.067 203.616 146L207.716 147.75C206.816 149.95 205.4 151.683 203.466 152.95C201.566 154.183 199.35 154.8 196.816 154.8ZM233.239 154H228.839V150.6H228.639C227.939 151.8 226.856 152.8 225.389 153.6C223.956 154.4 222.456 154.8 220.889 154.8C217.889 154.8 215.573 153.95 213.939 152.25C212.339 150.517 211.539 148.067 211.539 144.9V129.5H216.139V144.6C216.239 148.6 218.256 150.6 222.189 150.6C224.023 150.6 225.556 149.867 226.789 148.4C228.023 146.9 228.639 145.117 228.639 143.05V129.5H233.239V154ZM243.439 154H238.839V129.5H243.239V132.9H243.439C244.139 131.7 245.206 130.7 246.639 129.9C248.106 129.1 249.556 128.7 250.989 128.7C252.789 128.7 254.372 129.117 255.739 129.95C257.106 130.783 258.106 131.933 258.739 133.4C260.772 130.267 263.589 128.7 267.189 128.7C270.022 128.7 272.206 129.567 273.739 131.3C275.272 133.033 276.039 135.5 276.039 138.7V154H271.439V139.4C271.439 137.1 271.022 135.45 270.189 134.45C269.356 133.417 267.956 132.9 265.989 132.9C264.222 132.9 262.739 133.65 261.539 135.15C260.339 136.65 259.739 138.417 259.739 140.45V154H255.139V139.4C255.139 137.1 254.722 135.45 253.889 134.45C253.056 133.417 251.656 132.9 249.689 132.9C247.922 132.9 246.439 133.65 245.239 135.15C244.039 136.65 243.439 138.417 243.439 140.45V154ZM292.417 154.8C288.817 154.8 285.851 153.567 283.517 151.1C281.184 148.633 280.017 145.517 280.017 141.75C280.017 138.017 281.151 134.917 283.417 132.45C285.684 129.95 288.584 128.7 292.117 128.7C295.751 128.7 298.634 129.883 300.767 132.25C302.934 134.583 304.017 137.867 304.017 142.1L303.967 142.6H284.717C284.784 145 285.584 146.933 287.117 148.4C288.651 149.867 290.484 150.6 292.617 150.6C295.551 150.6 297.851 149.133 299.517 146.2L303.617 148.2C302.517 150.267 300.984 151.883 299.017 153.05C297.084 154.217 294.884 154.8 292.417 154.8ZM285.067 138.8H299.117C298.984 137.1 298.284 135.7 297.017 134.6C295.784 133.467 294.117 132.9 292.017 132.9C290.284 132.9 288.784 133.433 287.517 134.5C286.284 135.567 285.467 137 285.067 138.8ZM308.224 129.5H312.624V132.9H312.824C313.524 131.7 314.59 130.7 316.024 129.9C317.49 129.1 319.007 128.7 320.574 128.7C323.574 128.7 325.874 129.567 327.474 131.3C329.107 133 329.924 135.433 329.924 138.6V154H325.324V138.9C325.224 134.9 323.207 132.9 319.274 132.9C317.44 132.9 315.907 133.65 314.674 135.15C313.44 136.617 312.824 138.383 312.824 140.45V154H308.224V129.5ZM343.754 154.4C341.754 154.4 340.087 153.783 338.754 152.55C337.454 151.317 336.787 149.6 336.754 147.4V133.7H332.454V129.5H336.754V122H341.354V129.5H347.354V133.7H341.354V145.9C341.354 147.533 341.671 148.65 342.304 149.25C342.937 149.817 343.654 150.1 344.454 150.1C344.821 150.1 345.171 150.067 345.504 150C345.871 149.9 346.204 149.783 346.504 149.65L347.954 153.75C346.754 154.183 345.354 154.4 343.754 154.4ZM354.591 146.5C354.591 147.7 355.091 148.7 356.091 149.5C357.125 150.3 358.325 150.7 359.691 150.7C361.625 150.7 363.341 149.983 364.841 148.55C366.375 147.117 367.141 145.433 367.141 143.5C365.708 142.367 363.708 141.8 361.141 141.8C359.275 141.8 357.708 142.25 356.441 143.15C355.208 144.05 354.591 145.167 354.591 146.5ZM360.541 128.7C363.941 128.7 366.625 129.617 368.591 131.45C370.558 133.25 371.541 135.733 371.541 138.9V154H367.141V150.6H366.941C365.041 153.4 362.508 154.8 359.341 154.8C356.641 154.8 354.375 154 352.541 152.4C350.741 150.8 349.841 148.8 349.841 146.4C349.841 143.867 350.791 141.85 352.691 140.35C354.625 138.85 357.191 138.1 360.391 138.1C363.125 138.1 365.375 138.6 367.141 139.6V138.55C367.141 136.95 366.508 135.6 365.241 134.5C363.975 133.367 362.491 132.8 360.791 132.8C358.225 132.8 356.191 133.883 354.691 136.05L350.641 133.5C352.875 130.3 356.175 128.7 360.541 128.7ZM385.941 154.4C383.941 154.4 382.275 153.783 380.941 152.55C379.641 151.317 378.975 149.6 378.941 147.4V133.7H374.641V129.5H378.941V122H383.541V129.5H389.541V133.7H383.541V145.9C383.541 147.533 383.858 148.65 384.491 149.25C385.125 149.817 385.841 150.1 386.641 150.1C387.008 150.1 387.358 150.067 387.691 150C388.058 149.9 388.391 149.783 388.691 149.65L390.141 153.75C388.941 154.183 387.541 154.4 385.941 154.4ZM400.111 121.05C400.111 121.95 399.795 122.717 399.161 123.35C398.528 123.983 397.761 124.3 396.861 124.3C395.961 124.3 395.195 123.983 394.561 123.35C393.928 122.717 393.611 121.95 393.611 121.05C393.611 120.15 393.928 119.383 394.561 118.75C395.195 118.117 395.961 117.8 396.861 117.8C397.761 117.8 398.528 118.117 399.161 118.75C399.795 119.383 400.111 120.15 400.111 121.05ZM399.161 129.5V154H394.561V129.5H399.161ZM403.504 141.75C403.504 137.983 404.687 134.867 407.054 132.4C409.454 129.933 412.47 128.7 416.104 128.7C419.737 128.7 422.737 129.933 425.104 132.4C427.504 134.867 428.704 137.983 428.704 141.75C428.704 145.55 427.504 148.667 425.104 151.1C422.737 153.567 419.737 154.8 416.104 154.8C412.47 154.8 409.454 153.567 407.054 151.1C404.687 148.633 403.504 145.517 403.504 141.75ZM408.104 141.75C408.104 144.383 408.87 146.517 410.404 148.15C411.937 149.783 413.837 150.6 416.104 150.6C418.37 150.6 420.27 149.783 421.804 148.15C423.337 146.517 424.104 144.383 424.104 141.75C424.104 139.15 423.337 137.033 421.804 135.4C420.237 133.733 418.337 132.9 416.104 132.9C413.87 132.9 411.97 133.733 410.404 135.4C408.87 137.033 408.104 139.15 408.104 141.75ZM432.394 129.5H436.794V132.9H436.994C437.694 131.7 438.76 130.7 440.194 129.9C441.66 129.1 443.177 128.7 444.744 128.7C447.744 128.7 450.044 129.567 451.644 131.3C453.277 133 454.094 135.433 454.094 138.6V154H449.494V138.9C449.394 134.9 447.377 132.9 443.444 132.9C441.61 132.9 440.077 133.65 438.844 135.15C437.61 136.617 436.994 138.383 436.994 140.45V154H432.394V129.5Z" fill="black"/>
</svg>
