<svg width="344" height="142" viewBox="0 0 344 142" fill="none" xmlns="http://www.w3.org/2000/svg">
<path d="M241 14H16C7.16344 14 0 21.1634 0 30V101.5C0 110.337 7.16344 117.5 16 117.5H41.5C48.1274 117.5 53.5 122.873 53.5 129.5C53.5 136.127 58.8726 141.5 65.5 141.5H313.5C322.337 141.5 329.5 134.337 329.5 125.5V69.5C329.5 60.6634 322.337 53.5 313.5 53.5H273C264.163 53.5 257 46.3366 257 37.5V30C257 21.1634 249.837 14 241 14Z" fill="#0B38EE"/>
<path d="M30 1H255C263.284 1 270 7.71573 270 16V23.5C270 32.8888 277.611 40.5 287 40.5H327.5C335.784 40.5 342.5 47.2157 342.5 55.5V111.5C342.5 119.784 335.784 126.5 327.5 126.5H79.5C73.4249 126.5 68.5 121.575 68.5 115.5C68.5 108.32 62.6797 102.5 55.5 102.5H30C21.7157 102.5 15 95.7843 15 87.5V16C15 7.71573 21.7157 1 30 1Z" fill="white" stroke="black" stroke-width="2"/>
<path d="M87.82 82V39.04H100.96C107.52 39.04 112.78 41.02 116.74 44.98C120.74 48.94 122.74 54.12 122.74 60.52C122.74 66.96 120.74 72.16 116.74 76.12C112.78 80.04 107.52 82 100.96 82H87.82ZM93.34 44.32V76.72H100.96C105.96 76.72 109.9 75.3 112.78 72.46C115.66 69.58 117.1 65.6 117.1 60.52C117.1 55.48 115.66 51.52 112.78 48.64C109.9 45.76 105.96 44.32 100.96 44.32H93.34ZM140.665 82.96C136.345 82.96 132.785 81.48 129.985 78.52C127.185 75.56 125.785 71.82 125.785 67.3C125.785 62.82 127.145 59.1 129.865 56.14C132.585 53.14 136.065 51.64 140.305 51.64C144.665 51.64 148.125 53.06 150.685 55.9C153.285 58.7 154.585 62.64 154.585 67.72L154.525 68.32H131.425C131.505 71.2 132.465 73.52 134.305 75.28C136.145 77.04 138.345 77.92 140.905 77.92C144.425 77.92 147.185 76.16 149.185 72.64L154.105 75.04C152.785 77.52 150.945 79.46 148.585 80.86C146.265 82.26 143.625 82.96 140.665 82.96ZM131.845 63.76H148.705C148.545 61.72 147.705 60.04 146.185 58.72C144.705 57.36 142.705 56.68 140.185 56.68C138.105 56.68 136.305 57.32 134.785 58.6C133.305 59.88 132.325 61.6 131.845 63.76ZM182.426 73.84C182.426 76.4 181.306 78.56 179.066 80.32C176.826 82.08 174.006 82.96 170.606 82.96C167.646 82.96 165.046 82.2 162.806 80.68C160.566 79.12 158.966 77.08 158.006 74.56L162.926 72.46C163.646 74.22 164.686 75.6 166.046 76.6C167.446 77.56 168.966 78.04 170.606 78.04C172.366 78.04 173.826 77.66 174.986 76.9C176.186 76.14 176.786 75.24 176.786 74.2C176.786 72.32 175.346 70.94 172.466 70.06L167.426 68.8C161.706 67.36 158.846 64.6 158.846 60.52C158.846 57.84 159.926 55.7 162.086 54.1C164.286 52.46 167.086 51.64 170.486 51.64C173.086 51.64 175.426 52.26 177.506 53.5C179.626 54.74 181.106 56.4 181.946 58.48L177.026 60.52C176.466 59.28 175.546 58.32 174.266 57.64C173.026 56.92 171.626 56.56 170.066 56.56C168.626 56.56 167.326 56.92 166.166 57.64C165.046 58.36 164.486 59.24 164.486 60.28C164.486 61.96 166.066 63.16 169.226 63.88L173.666 65.02C179.506 66.46 182.426 69.4 182.426 73.84ZM194.078 42.46C194.078 43.54 193.698 44.46 192.938 45.22C192.178 45.98 191.258 46.36 190.178 46.36C189.098 46.36 188.178 45.98 187.418 45.22C186.658 44.46 186.278 43.54 186.278 42.46C186.278 41.38 186.658 40.46 187.418 39.7C188.178 38.94 189.098 38.56 190.178 38.56C191.258 38.56 192.178 38.94 192.938 39.7C193.698 40.46 194.078 41.38 194.078 42.46ZM192.938 52.6V82H187.418V52.6H192.938ZM213.029 77.92C215.749 77.92 217.969 76.94 219.689 74.98C221.489 73.02 222.389 70.46 222.389 67.3C222.389 64.22 221.489 61.68 219.689 59.68C217.929 57.68 215.709 56.68 213.029 56.68C210.389 56.68 208.169 57.68 206.369 59.68C204.569 61.68 203.669 64.22 203.669 67.3C203.669 70.42 204.569 72.96 206.369 74.92C208.169 76.92 210.389 77.92 213.029 77.92ZM212.849 95.92C211.209 95.92 209.669 95.7 208.229 95.26C206.789 94.86 205.469 94.28 204.269 93.52C203.109 92.76 202.109 91.86 201.269 90.82C200.429 89.78 199.789 88.62 199.349 87.34L204.569 85.18C205.169 86.9 206.209 88.28 207.689 89.32C209.169 90.36 210.889 90.88 212.849 90.88C215.849 90.88 218.189 89.98 219.869 88.18C221.549 86.38 222.389 83.9 222.389 80.74V77.92H222.149C221.109 79.48 219.689 80.72 217.889 81.64C216.129 82.52 214.209 82.96 212.129 82.96C208.289 82.96 204.989 81.46 202.229 78.46C199.509 75.38 198.149 71.66 198.149 67.3C198.149 62.94 199.509 59.24 202.229 56.2C204.989 53.16 208.289 51.64 212.129 51.64C214.209 51.64 216.129 52.1 217.889 53.02C219.689 53.9 221.109 55.12 222.149 56.68H222.389V52.6H227.669V80.74C227.669 85.46 226.329 89.16 223.649 91.84C220.929 94.56 217.329 95.92 212.849 95.92ZM234.399 52.6H239.679V56.68H239.919C240.759 55.24 242.039 54.04 243.759 53.08C245.519 52.12 247.339 51.64 249.219 51.64C252.819 51.64 255.579 52.68 257.499 54.76C259.459 56.8 260.439 59.72 260.439 63.52V82H254.919V63.88C254.799 59.08 252.379 56.68 247.659 56.68C245.459 56.68 243.619 57.58 242.139 59.38C240.659 61.14 239.919 63.26 239.919 65.74V82H234.399V52.6Z" fill="black"/>
</svg>
