<svg width="344" height="142" viewBox="0 0 344 142" fill="none" xmlns="http://www.w3.org/2000/svg">
<g filter="url(#filter0_d_9779_108)">
<path d="M254 1H29C20.1634 1 13 8.16344 13 17V88.5C13 97.3366 20.1634 104.5 29 104.5H54.5C61.1274 104.5 66.5 109.873 66.5 116.5C66.5 123.127 71.8726 128.5 78.5 128.5H326.5C335.337 128.5 342.5 121.337 342.5 112.5V56.5C342.5 47.6634 335.337 40.5 326.5 40.5H286C277.163 40.5 270 33.3366 270 24.5V17C270 8.16344 262.837 1 254 1Z" fill="white"/>
<path d="M254 1H29C20.1634 1 13 8.16344 13 17V88.5C13 97.3366 20.1634 104.5 29 104.5H54.5C61.1274 104.5 66.5 109.873 66.5 116.5C66.5 123.127 71.8726 128.5 78.5 128.5H326.5C335.337 128.5 342.5 121.337 342.5 112.5V56.5C342.5 47.6634 335.337 40.5 326.5 40.5H286C277.163 40.5 270 33.3366 270 24.5V17C270 8.16344 262.837 1 254 1Z" stroke="black" stroke-width="2"/>
</g>
<path d="M86.82 83V40.04H99.96C106.52 40.04 111.78 42.02 115.74 45.98C119.74 49.94 121.74 55.12 121.74 61.52C121.74 67.96 119.74 73.16 115.74 77.12C111.78 81.04 106.52 83 99.96 83H86.82ZM92.34 45.32V77.72H99.96C104.96 77.72 108.9 76.3 111.78 73.46C114.66 70.58 116.1 66.6 116.1 61.52C116.1 56.48 114.66 52.52 111.78 49.64C108.9 46.76 104.96 45.32 99.96 45.32H92.34ZM139.665 83.96C135.345 83.96 131.785 82.48 128.985 79.52C126.185 76.56 124.785 72.82 124.785 68.3C124.785 63.82 126.145 60.1 128.865 57.14C131.585 54.14 135.065 52.64 139.305 52.64C143.665 52.64 147.125 54.06 149.685 56.9C152.285 59.7 153.585 63.64 153.585 68.72L153.525 69.32H130.425C130.505 72.2 131.465 74.52 133.305 76.28C135.145 78.04 137.345 78.92 139.905 78.92C143.425 78.92 146.185 77.16 148.185 73.64L153.105 76.04C151.785 78.52 149.945 80.46 147.585 81.86C145.265 83.26 142.625 83.96 139.665 83.96ZM130.845 64.76H147.705C147.545 62.72 146.705 61.04 145.185 59.72C143.705 58.36 141.705 57.68 139.185 57.68C137.105 57.68 135.305 58.32 133.785 59.6C132.305 60.88 131.325 62.6 130.845 64.76ZM181.426 74.84C181.426 77.4 180.306 79.56 178.066 81.32C175.826 83.08 173.006 83.96 169.606 83.96C166.646 83.96 164.046 83.2 161.806 81.68C159.566 80.12 157.966 78.08 157.006 75.56L161.926 73.46C162.646 75.22 163.686 76.6 165.046 77.6C166.446 78.56 167.966 79.04 169.606 79.04C171.366 79.04 172.826 78.66 173.986 77.9C175.186 77.14 175.786 76.24 175.786 75.2C175.786 73.32 174.346 71.94 171.466 71.06L166.426 69.8C160.706 68.36 157.846 65.6 157.846 61.52C157.846 58.84 158.926 56.7 161.086 55.1C163.286 53.46 166.086 52.64 169.486 52.64C172.086 52.64 174.426 53.26 176.506 54.5C178.626 55.74 180.106 57.4 180.946 59.48L176.026 61.52C175.466 60.28 174.546 59.32 173.266 58.64C172.026 57.92 170.626 57.56 169.066 57.56C167.626 57.56 166.326 57.92 165.166 58.64C164.046 59.36 163.486 60.24 163.486 61.28C163.486 62.96 165.066 64.16 168.226 64.88L172.666 66.02C178.506 67.46 181.426 70.4 181.426 74.84ZM193.078 43.46C193.078 44.54 192.698 45.46 191.938 46.22C191.178 46.98 190.258 47.36 189.178 47.36C188.098 47.36 187.178 46.98 186.418 46.22C185.658 45.46 185.278 44.54 185.278 43.46C185.278 42.38 185.658 41.46 186.418 40.7C187.178 39.94 188.098 39.56 189.178 39.56C190.258 39.56 191.178 39.94 191.938 40.7C192.698 41.46 193.078 42.38 193.078 43.46ZM191.938 53.6V83H186.418V53.6H191.938ZM212.029 78.92C214.749 78.92 216.969 77.94 218.689 75.98C220.489 74.02 221.389 71.46 221.389 68.3C221.389 65.22 220.489 62.68 218.689 60.68C216.929 58.68 214.709 57.68 212.029 57.68C209.389 57.68 207.169 58.68 205.369 60.68C203.569 62.68 202.669 65.22 202.669 68.3C202.669 71.42 203.569 73.96 205.369 75.92C207.169 77.92 209.389 78.92 212.029 78.92ZM211.849 96.92C210.209 96.92 208.669 96.7 207.229 96.26C205.789 95.86 204.469 95.28 203.269 94.52C202.109 93.76 201.109 92.86 200.269 91.82C199.429 90.78 198.789 89.62 198.349 88.34L203.569 86.18C204.169 87.9 205.209 89.28 206.689 90.32C208.169 91.36 209.889 91.88 211.849 91.88C214.849 91.88 217.189 90.98 218.869 89.18C220.549 87.38 221.389 84.9 221.389 81.74V78.92H221.149C220.109 80.48 218.689 81.72 216.889 82.64C215.129 83.52 213.209 83.96 211.129 83.96C207.289 83.96 203.989 82.46 201.229 79.46C198.509 76.38 197.149 72.66 197.149 68.3C197.149 63.94 198.509 60.24 201.229 57.2C203.989 54.16 207.289 52.64 211.129 52.64C213.209 52.64 215.129 53.1 216.889 54.02C218.689 54.9 220.109 56.12 221.149 57.68H221.389V53.6H226.669V81.74C226.669 86.46 225.329 90.16 222.649 92.84C219.929 95.56 216.329 96.92 211.849 96.92ZM233.399 53.6H238.679V57.68H238.919C239.759 56.24 241.039 55.04 242.759 54.08C244.519 53.12 246.339 52.64 248.219 52.64C251.819 52.64 254.579 53.68 256.499 55.76C258.459 57.8 259.439 60.72 259.439 64.52V83H253.919V64.88C253.799 60.08 251.379 57.68 246.659 57.68C244.459 57.68 242.619 58.58 241.139 60.38C239.659 62.14 238.919 64.26 238.919 66.74V83H233.399V53.6Z" fill="black"/>
<defs>
<filter id="filter0_d_9779_108" x="0" y="0" width="343.5" height="141.5" filterUnits="userSpaceOnUse" color-interpolation-filters="sRGB">
<feFlood flood-opacity="0" result="BackgroundImageFix"/>
<feColorMatrix in="SourceAlpha" type="matrix" values="0 0 0 0 0 0 0 0 0 0 0 0 0 0 0 0 0 0 127 0" result="hardAlpha"/>
<feOffset dx="-12" dy="12"/>
<feComposite in2="hardAlpha" operator="out"/>
<feColorMatrix type="matrix" values="0 0 0 0 0.0430472 0 0 0 0 0.220976 0 0 0 0 0.932692 0 0 0 1 0"/>
<feBlend mode="normal" in2="BackgroundImageFix" result="effect1_dropShadow_9779_108"/>
<feBlend mode="normal" in="SourceGraphic" in2="effect1_dropShadow_9779_108" result="shape"/>
</filter>
</defs>
</svg>
