<svg width="474" height="142" viewBox="0 0 474 142" fill="none" xmlns="http://www.w3.org/2000/svg">
<g filter="url(#filter0_d_9779_117)">
<path d="M384 1H29C20.1634 1 13 8.16344 13 17V88.5C13 97.3366 20.1634 104.5 29 104.5H54.5C61.1274 104.5 66.5 109.873 66.5 116.5C66.5 123.127 71.8726 128.5 78.5 128.5H456.5C465.337 128.5 472.5 121.337 472.5 112.5V56.5C472.5 47.6634 465.337 40.5 456.5 40.5H416C407.163 40.5 400 33.3366 400 24.5V17C400 8.16344 392.837 1 384 1Z" fill="white"/>
<path d="M384 1H29C20.1634 1 13 8.16344 13 17V88.5C13 97.3366 20.1634 104.5 29 104.5H54.5C61.1274 104.5 66.5 109.873 66.5 116.5C66.5 123.127 71.8726 128.5 78.5 128.5H456.5C465.337 128.5 472.5 121.337 472.5 112.5V56.5C472.5 47.6634 465.337 40.5 456.5 40.5H416C407.163 40.5 400 33.3366 400 24.5V17C400 8.16344 392.837 1 384 1Z" stroke="black" stroke-width="2"/>
</g>
<path d="M128.88 61.52C128.88 67.88 126.76 73.2 122.52 77.48C118.24 81.8 113 83.96 106.8 83.96C100.56 83.96 95.32 81.8 91.08 77.48C86.84 73.2 84.72 67.88 84.72 61.52C84.72 55.16 86.84 49.84 91.08 45.56C95.32 41.24 100.56 39.08 106.8 39.08C113.04 39.08 118.28 41.26 122.52 45.62C126.76 49.9 128.88 55.2 128.88 61.52ZM90.36 61.52C90.36 66.48 91.92 70.58 95.04 73.82C98.2 77.06 102.12 78.68 106.8 78.68C111.48 78.68 115.38 77.06 118.5 73.82C121.66 70.62 123.24 66.52 123.24 61.52C123.24 56.52 121.66 52.42 118.5 49.22C115.38 45.98 111.48 44.36 106.8 44.36C102.12 44.36 98.2 45.98 95.04 49.22C91.92 52.46 90.36 56.56 90.36 61.52ZM148.834 78.92C151.474 78.92 153.694 77.92 155.494 75.92C157.294 73.96 158.194 71.42 158.194 68.3C158.194 65.22 157.294 62.68 155.494 60.68C153.694 58.68 151.474 57.68 148.834 57.68C146.154 57.68 143.914 58.68 142.114 60.68C140.354 62.68 139.474 65.22 139.474 68.3C139.474 71.42 140.354 73.98 142.114 75.98C143.914 77.94 146.154 78.92 148.834 78.92ZM149.734 83.96C147.574 83.96 145.594 83.5 143.794 82.58C142.034 81.66 140.674 80.44 139.714 78.92H139.474L139.714 83V95.96H134.194V53.6H139.474V57.68H139.714C140.674 56.16 142.034 54.94 143.794 54.02C145.594 53.1 147.574 52.64 149.734 52.64C153.614 52.64 156.894 54.16 159.574 57.2C162.334 60.28 163.714 63.98 163.714 68.3C163.714 72.66 162.334 76.36 159.574 79.4C156.894 82.44 153.614 83.96 149.734 83.96ZM181.97 83.96C177.65 83.96 174.09 82.48 171.29 79.52C168.49 76.56 167.09 72.82 167.09 68.3C167.09 63.82 168.45 60.1 171.17 57.14C173.89 54.14 177.37 52.64 181.61 52.64C185.97 52.64 189.43 54.06 191.99 56.9C194.59 59.7 195.89 63.64 195.89 68.72L195.83 69.32H172.73C172.81 72.2 173.77 74.52 175.61 76.28C177.45 78.04 179.65 78.92 182.21 78.92C185.73 78.92 188.49 77.16 190.49 73.64L195.41 76.04C194.09 78.52 192.25 80.46 189.89 81.86C187.57 83.26 184.93 83.96 181.97 83.96ZM173.15 64.76H190.01C189.85 62.72 189.01 61.04 187.49 59.72C186.01 58.36 184.01 57.68 181.49 57.68C179.41 57.68 177.61 58.32 176.09 59.6C174.61 60.88 173.63 62.6 173.15 64.76ZM206.458 83H200.938V53.6H206.218V58.4H206.458C207.018 56.84 208.158 55.52 209.878 54.44C211.638 53.32 213.358 52.76 215.038 52.76C216.638 52.76 217.998 53 219.118 53.48L217.438 58.82C216.758 58.54 215.678 58.4 214.198 58.4C212.118 58.4 210.298 59.24 208.738 60.92C207.218 62.6 206.458 64.56 206.458 66.8V83ZM225.583 74C225.583 75.44 226.183 76.64 227.383 77.6C228.623 78.56 230.063 79.04 231.703 79.04C234.023 79.04 236.083 78.18 237.883 76.46C239.723 74.74 240.643 72.72 240.643 70.4C238.923 69.04 236.523 68.36 233.443 68.36C231.203 68.36 229.323 68.9 227.803 69.98C226.323 71.06 225.583 72.4 225.583 74ZM232.723 52.64C236.803 52.64 240.023 53.74 242.383 55.94C244.743 58.1 245.923 61.08 245.923 64.88V83H240.643V78.92H240.403C238.123 82.28 235.083 83.96 231.283 83.96C228.043 83.96 225.323 83 223.123 81.08C220.963 79.16 219.883 76.76 219.883 73.88C219.883 70.84 221.023 68.42 223.303 66.62C225.623 64.82 228.703 63.92 232.543 63.92C235.823 63.92 238.523 64.52 240.643 65.72V64.46C240.643 62.54 239.883 60.92 238.363 59.6C236.843 58.24 235.063 57.56 233.023 57.56C229.943 57.56 227.503 58.86 225.703 61.46L220.843 58.4C223.523 54.56 227.483 52.64 232.723 52.64ZM263.203 83.48C260.803 83.48 258.803 82.74 257.203 81.26C255.643 79.78 254.843 77.72 254.803 75.08V58.64H249.643V53.6H254.803V44.6H260.323V53.6H267.523V58.64H260.323V73.28C260.323 75.24 260.703 76.58 261.463 77.3C262.223 77.98 263.083 78.32 264.043 78.32C264.483 78.32 264.903 78.28 265.303 78.2C265.743 78.08 266.143 77.94 266.503 77.78L268.243 82.7C266.803 83.22 265.123 83.48 263.203 83.48ZM280.207 43.46C280.207 44.54 279.827 45.46 279.067 46.22C278.307 46.98 277.387 47.36 276.307 47.36C275.227 47.36 274.307 46.98 273.547 46.22C272.787 45.46 272.407 44.54 272.407 43.46C272.407 42.38 272.787 41.46 273.547 40.7C274.307 39.94 275.227 39.56 276.307 39.56C277.387 39.56 278.307 39.94 279.067 40.7C279.827 41.46 280.207 42.38 280.207 43.46ZM279.067 53.6V83H273.547V53.6H279.067ZM284.278 68.3C284.278 63.78 285.698 60.04 288.538 57.08C291.418 54.12 295.038 52.64 299.398 52.64C303.758 52.64 307.358 54.12 310.198 57.08C313.078 60.04 314.518 63.78 314.518 68.3C314.518 72.86 313.078 76.6 310.198 79.52C307.358 82.48 303.758 83.96 299.398 83.96C295.038 83.96 291.418 82.48 288.538 79.52C285.698 76.56 284.278 72.82 284.278 68.3ZM289.798 68.3C289.798 71.46 290.718 74.02 292.558 75.98C294.398 77.94 296.678 78.92 299.398 78.92C302.118 78.92 304.398 77.94 306.238 75.98C308.078 74.02 308.998 71.46 308.998 68.3C308.998 65.18 308.078 62.64 306.238 60.68C304.358 58.68 302.078 57.68 299.398 57.68C296.718 57.68 294.438 58.68 292.558 60.68C290.718 62.64 289.798 65.18 289.798 68.3ZM318.946 53.6H324.226V57.68H324.466C325.306 56.24 326.586 55.04 328.306 54.08C330.066 53.12 331.886 52.64 333.766 52.64C337.366 52.64 340.126 53.68 342.046 55.76C344.006 57.8 344.986 60.72 344.986 64.52V83H339.466V64.88C339.346 60.08 336.926 57.68 332.206 57.68C330.006 57.68 328.166 58.58 326.686 60.38C325.206 62.14 324.466 64.26 324.466 66.74V83H318.946V53.6ZM373.673 74.84C373.673 77.4 372.553 79.56 370.313 81.32C368.073 83.08 365.253 83.96 361.853 83.96C358.893 83.96 356.293 83.2 354.053 81.68C351.813 80.12 350.213 78.08 349.253 75.56L354.173 73.46C354.893 75.22 355.933 76.6 357.293 77.6C358.693 78.56 360.213 79.04 361.853 79.04C363.613 79.04 365.073 78.66 366.233 77.9C367.433 77.14 368.033 76.24 368.033 75.2C368.033 73.32 366.593 71.94 363.713 71.06L358.673 69.8C352.953 68.36 350.093 65.6 350.093 61.52C350.093 58.84 351.173 56.7 353.333 55.1C355.533 53.46 358.333 52.64 361.733 52.64C364.333 52.64 366.673 53.26 368.753 54.5C370.873 55.74 372.353 57.4 373.193 59.48L368.273 61.52C367.713 60.28 366.793 59.32 365.513 58.64C364.273 57.92 362.873 57.56 361.313 57.56C359.873 57.56 358.573 57.92 357.413 58.64C356.293 59.36 355.732 60.24 355.732 61.28C355.732 62.96 357.313 64.16 360.473 64.88L364.913 66.02C370.753 67.46 373.673 70.4 373.673 74.84Z" fill="black"/>
<defs>
<filter id="filter0_d_9779_117" x="0" y="0" width="473.5" height="141.5" filterUnits="userSpaceOnUse" color-interpolation-filters="sRGB">
<feFlood flood-opacity="0" result="BackgroundImageFix"/>
<feColorMatrix in="SourceAlpha" type="matrix" values="0 0 0 0 0 0 0 0 0 0 0 0 0 0 0 0 0 0 127 0" result="hardAlpha"/>
<feOffset dx="-12" dy="12"/>
<feComposite in2="hardAlpha" operator="out"/>
<feColorMatrix type="matrix" values="0 0 0 0 0.0430472 0 0 0 0 0.220976 0 0 0 0 0.932692 0 0 0 1 0"/>
<feBlend mode="normal" in2="BackgroundImageFix" result="effect1_dropShadow_9779_117"/>
<feBlend mode="normal" in="SourceGraphic" in2="effect1_dropShadow_9779_117" result="shape"/>
</filter>
</defs>
</svg>
