<svg width="474" height="142" viewBox="0 0 474 142" fill="none" xmlns="http://www.w3.org/2000/svg">
<path d="M371 14H16C7.16344 14 0 21.1634 0 30V101.5C0 110.337 7.16344 117.5 16 117.5H41.5C48.1274 117.5 53.5 122.873 53.5 129.5C53.5 136.127 58.8726 141.5 65.5 141.5H443.5C452.337 141.5 459.5 134.337 459.5 125.5V69.5C459.5 60.6634 452.337 53.5 443.5 53.5H403C394.163 53.5 387 46.3366 387 37.5V30C387 21.1634 379.837 14 371 14Z" fill="#0B38EE"/>
<path d="M30 1H385C393.284 1 400 7.71573 400 16V23.5C400 32.8888 407.611 40.5 417 40.5H457.5C465.784 40.5 472.5 47.2157 472.5 55.5V111.5C472.5 119.784 465.784 126.5 457.5 126.5H79.5C73.4249 126.5 68.5 121.575 68.5 115.5C68.5 108.32 62.6797 102.5 55.5 102.5H30C21.7157 102.5 15 95.7843 15 87.5V16C15 7.71573 21.7157 1 30 1Z" fill="white" stroke="black" stroke-width="2"/>
<path d="M129.88 60.52C129.88 66.88 127.76 72.2 123.52 76.48C119.24 80.8 114 82.96 107.8 82.96C101.56 82.96 96.32 80.8 92.08 76.48C87.84 72.2 85.72 66.88 85.72 60.52C85.72 54.16 87.84 48.84 92.08 44.56C96.32 40.24 101.56 38.08 107.8 38.08C114.04 38.08 119.28 40.26 123.52 44.62C127.76 48.9 129.88 54.2 129.88 60.52ZM91.36 60.52C91.36 65.48 92.92 69.58 96.04 72.82C99.2 76.06 103.12 77.68 107.8 77.68C112.48 77.68 116.38 76.06 119.5 72.82C122.66 69.62 124.24 65.52 124.24 60.52C124.24 55.52 122.66 51.42 119.5 48.22C116.38 44.98 112.48 43.36 107.8 43.36C103.12 43.36 99.2 44.98 96.04 48.22C92.92 51.46 91.36 55.56 91.36 60.52ZM149.834 77.92C152.474 77.92 154.694 76.92 156.494 74.92C158.294 72.96 159.194 70.42 159.194 67.3C159.194 64.22 158.294 61.68 156.494 59.68C154.694 57.68 152.474 56.68 149.834 56.68C147.154 56.68 144.914 57.68 143.114 59.68C141.354 61.68 140.474 64.22 140.474 67.3C140.474 70.42 141.354 72.98 143.114 74.98C144.914 76.94 147.154 77.92 149.834 77.92ZM150.734 82.96C148.574 82.96 146.594 82.5 144.794 81.58C143.034 80.66 141.674 79.44 140.714 77.92H140.474L140.714 82V94.96H135.194V52.6H140.474V56.68H140.714C141.674 55.16 143.034 53.94 144.794 53.02C146.594 52.1 148.574 51.64 150.734 51.64C154.614 51.64 157.894 53.16 160.574 56.2C163.334 59.28 164.714 62.98 164.714 67.3C164.714 71.66 163.334 75.36 160.574 78.4C157.894 81.44 154.614 82.96 150.734 82.96ZM182.97 82.96C178.65 82.96 175.09 81.48 172.29 78.52C169.49 75.56 168.09 71.82 168.09 67.3C168.09 62.82 169.45 59.1 172.17 56.14C174.89 53.14 178.37 51.64 182.61 51.64C186.97 51.64 190.43 53.06 192.99 55.9C195.59 58.7 196.89 62.64 196.89 67.72L196.83 68.32H173.73C173.81 71.2 174.77 73.52 176.61 75.28C178.45 77.04 180.65 77.92 183.21 77.92C186.73 77.92 189.49 76.16 191.49 72.64L196.41 75.04C195.09 77.52 193.25 79.46 190.89 80.86C188.57 82.26 185.93 82.96 182.97 82.96ZM174.15 63.76H191.01C190.85 61.72 190.01 60.04 188.49 58.72C187.01 57.36 185.01 56.68 182.49 56.68C180.41 56.68 178.61 57.32 177.09 58.6C175.61 59.88 174.63 61.6 174.15 63.76ZM207.458 82H201.938V52.6H207.218V57.4H207.458C208.018 55.84 209.158 54.52 210.878 53.44C212.638 52.32 214.358 51.76 216.038 51.76C217.638 51.76 218.998 52 220.118 52.48L218.438 57.82C217.758 57.54 216.678 57.4 215.198 57.4C213.118 57.4 211.298 58.24 209.738 59.92C208.218 61.6 207.458 63.56 207.458 65.8V82ZM226.583 73C226.583 74.44 227.183 75.64 228.383 76.6C229.623 77.56 231.063 78.04 232.703 78.04C235.023 78.04 237.083 77.18 238.883 75.46C240.723 73.74 241.643 71.72 241.643 69.4C239.923 68.04 237.523 67.36 234.443 67.36C232.203 67.36 230.323 67.9 228.803 68.98C227.323 70.06 226.583 71.4 226.583 73ZM233.723 51.64C237.803 51.64 241.023 52.74 243.383 54.94C245.743 57.1 246.923 60.08 246.923 63.88V82H241.643V77.92H241.403C239.123 81.28 236.083 82.96 232.283 82.96C229.043 82.96 226.323 82 224.123 80.08C221.963 78.16 220.883 75.76 220.883 72.88C220.883 69.84 222.023 67.42 224.303 65.62C226.623 63.82 229.703 62.92 233.543 62.92C236.823 62.92 239.523 63.52 241.643 64.72V63.46C241.643 61.54 240.883 59.92 239.363 58.6C237.843 57.24 236.063 56.56 234.023 56.56C230.943 56.56 228.503 57.86 226.703 60.46L221.843 57.4C224.523 53.56 228.483 51.64 233.723 51.64ZM264.203 82.48C261.803 82.48 259.803 81.74 258.203 80.26C256.643 78.78 255.843 76.72 255.803 74.08V57.64H250.643V52.6H255.803V43.6H261.323V52.6H268.523V57.64H261.323V72.28C261.323 74.24 261.703 75.58 262.463 76.3C263.223 76.98 264.083 77.32 265.043 77.32C265.483 77.32 265.903 77.28 266.303 77.2C266.743 77.08 267.143 76.94 267.503 76.78L269.243 81.7C267.803 82.22 266.123 82.48 264.203 82.48ZM281.207 42.46C281.207 43.54 280.827 44.46 280.067 45.22C279.307 45.98 278.387 46.36 277.307 46.36C276.227 46.36 275.307 45.98 274.547 45.22C273.787 44.46 273.407 43.54 273.407 42.46C273.407 41.38 273.787 40.46 274.547 39.7C275.307 38.94 276.227 38.56 277.307 38.56C278.387 38.56 279.307 38.94 280.067 39.7C280.827 40.46 281.207 41.38 281.207 42.46ZM280.067 52.6V82H274.547V52.6H280.067ZM285.278 67.3C285.278 62.78 286.698 59.04 289.538 56.08C292.418 53.12 296.038 51.64 300.398 51.64C304.758 51.64 308.358 53.12 311.198 56.08C314.078 59.04 315.518 62.78 315.518 67.3C315.518 71.86 314.078 75.6 311.198 78.52C308.358 81.48 304.758 82.96 300.398 82.96C296.038 82.96 292.418 81.48 289.538 78.52C286.698 75.56 285.278 71.82 285.278 67.3ZM290.798 67.3C290.798 70.46 291.718 73.02 293.558 74.98C295.398 76.94 297.678 77.92 300.398 77.92C303.118 77.92 305.398 76.94 307.238 74.98C309.078 73.02 309.998 70.46 309.998 67.3C309.998 64.18 309.078 61.64 307.238 59.68C305.358 57.68 303.078 56.68 300.398 56.68C297.718 56.68 295.438 57.68 293.558 59.68C291.718 61.64 290.798 64.18 290.798 67.3ZM319.946 52.6H325.226V56.68H325.466C326.306 55.24 327.586 54.04 329.306 53.08C331.066 52.12 332.886 51.64 334.766 51.64C338.366 51.64 341.126 52.68 343.046 54.76C345.006 56.8 345.986 59.72 345.986 63.52V82H340.466V63.88C340.346 59.08 337.926 56.68 333.206 56.68C331.006 56.68 329.166 57.58 327.686 59.38C326.206 61.14 325.466 63.26 325.466 65.74V82H319.946V52.6ZM374.673 73.84C374.673 76.4 373.553 78.56 371.313 80.32C369.073 82.08 366.253 82.96 362.853 82.96C359.893 82.96 357.293 82.2 355.053 80.68C352.813 79.12 351.213 77.08 350.253 74.56L355.173 72.46C355.893 74.22 356.933 75.6 358.293 76.6C359.693 77.56 361.213 78.04 362.853 78.04C364.613 78.04 366.073 77.66 367.233 76.9C368.433 76.14 369.033 75.24 369.033 74.2C369.033 72.32 367.593 70.94 364.713 70.06L359.673 68.8C353.953 67.36 351.093 64.6 351.093 60.52C351.093 57.84 352.173 55.7 354.333 54.1C356.533 52.46 359.333 51.64 362.733 51.64C365.333 51.64 367.673 52.26 369.753 53.5C371.873 54.74 373.353 56.4 374.193 58.48L369.273 60.52C368.713 59.28 367.793 58.32 366.513 57.64C365.273 56.92 363.873 56.56 362.313 56.56C360.873 56.56 359.573 56.92 358.413 57.64C357.293 58.36 356.732 59.24 356.732 60.28C356.732 61.96 358.313 63.16 361.473 63.88L365.913 65.02C371.753 66.46 374.673 69.4 374.673 73.84Z" fill="black"/>
</svg>
