<svg width="444" height="212" viewBox="0 0 444 212" fill="none" xmlns="http://www.w3.org/2000/svg">
<path d="M181 14H16C7.16344 14 0 21.1634 0 30V111.5C0 120.337 7.16344 127.5 16 127.5H57.5C66.3366 127.5 73.5 134.663 73.5 143.5V195.5C73.5 204.337 80.6634 211.5 89.5 211.5H413.5C422.337 211.5 429.5 204.337 429.5 195.5V119.5C429.5 110.663 422.337 103.5 413.5 103.5H213C204.163 103.5 197 96.3366 197 87.5V30C197 21.1634 189.837 14 181 14Z" fill="#34A853"/>
<g filter="url(#filter0_d_9798_194)">
<path d="M195 0H30C21.1634 0 14 7.16344 14 16V97.5C14 106.337 21.1634 113.5 30 113.5H71.5C80.3366 113.5 87.5 120.663 87.5 129.5V181.5C87.5 190.337 94.6634 197.5 103.5 197.5H427.5C436.337 197.5 443.5 190.337 443.5 181.5V105.5C443.5 96.6634 436.337 89.5 427.5 89.5H227C218.163 89.5 211 82.3366 211 73.5V16C211 7.16344 203.837 0 195 0Z" fill="white"/>
<path d="M30 1H195C203.284 1 210 7.71573 210 16V73.5C210 82.8888 217.611 90.5 227 90.5H427.5C435.784 90.5 442.5 97.2157 442.5 105.5V181.5C442.5 189.784 435.784 196.5 427.5 196.5H103.5C95.2157 196.5 88.5 189.784 88.5 181.5V129.5C88.5 120.111 80.8888 112.5 71.5 112.5H30C21.7157 112.5 15 105.784 15 97.5V16L15.0049 15.6133C15.21 7.50774 21.845 1 30 1Z" stroke="black" stroke-width="2"/>
</g>
<path d="M93.2 65.5V80H88.6V44.2H100.8C103.9 44.2 106.533 45.2333 108.7 47.3C110.9 49.3667 112 51.8833 112 54.85C112 57.8833 110.9 60.4167 108.7 62.45C106.567 64.4833 103.933 65.5 100.8 65.5H93.2ZM93.2 48.6V61.1H100.9C102.733 61.1 104.25 60.4833 105.45 59.25C106.683 58.0167 107.3 56.55 107.3 54.85C107.3 53.1833 106.683 51.7333 105.45 50.5C104.25 49.2333 102.733 48.6 100.9 48.6H93.2ZM121.423 48.6V61.2H128.823C130.689 61.2 132.273 60.6 133.573 59.4C134.873 58.1667 135.523 56.65 135.523 54.85C135.523 53.1833 134.906 51.7333 133.673 50.5C132.473 49.2333 130.956 48.6 129.123 48.6H121.423ZM121.423 80H116.823V44.2H129.023C132.123 44.2 134.756 45.2333 136.923 47.3C139.123 49.3333 140.223 51.85 140.223 54.85C140.223 57.3167 139.406 59.5167 137.773 61.45C136.173 63.35 134.139 64.5667 131.673 65.1L131.573 65.25L141.623 79.8V80H136.173L126.523 65.5H121.423V80Z" fill="black"/>
<path d="M150.2 160H145.6V124.2H150.2L162.65 146H162.85L175.3 124.2H179.9V160H175.3V138.75L175.5 132.75H175.3L164.1 152.4H161.4L150.2 132.75H150L150.2 138.75V160ZM188.921 152.5C188.921 153.7 189.421 154.7 190.421 155.5C191.455 156.3 192.655 156.7 194.021 156.7C195.955 156.7 197.671 155.983 199.171 154.55C200.705 153.117 201.471 151.433 201.471 149.5C200.038 148.367 198.038 147.8 195.471 147.8C193.605 147.8 192.038 148.25 190.771 149.15C189.538 150.05 188.921 151.167 188.921 152.5ZM194.871 134.7C198.271 134.7 200.955 135.617 202.921 137.45C204.888 139.25 205.871 141.733 205.871 144.9V160H201.471V156.6H201.271C199.371 159.4 196.838 160.8 193.671 160.8C190.971 160.8 188.705 160 186.871 158.4C185.071 156.8 184.171 154.8 184.171 152.4C184.171 149.867 185.121 147.85 187.021 146.35C188.955 144.85 191.521 144.1 194.721 144.1C197.455 144.1 199.705 144.6 201.471 145.6V144.55C201.471 142.95 200.838 141.6 199.571 140.5C198.305 139.367 196.821 138.8 195.121 138.8C192.555 138.8 190.521 139.883 189.021 142.05L184.971 139.5C187.205 136.3 190.505 134.7 194.871 134.7ZM215.66 160H211.06V135.5H215.46V139.5H215.66C216.126 138.2 217.076 137.1 218.51 136.2C219.976 135.267 221.41 134.8 222.81 134.8C224.143 134.8 225.276 135 226.21 135.4L224.81 139.85C224.243 139.617 223.343 139.5 222.11 139.5C220.376 139.5 218.86 140.2 217.56 141.6C216.293 143 215.66 144.633 215.66 146.5V160ZM251.018 160H245.468L237.818 148.45L234.068 152.15V160H229.468V124.2H234.068V146.25L244.668 135.5H250.568V135.7L241.018 145.2L251.018 159.8V160ZM263.905 160.8C260.305 160.8 257.339 159.567 255.005 157.1C252.672 154.633 251.505 151.517 251.505 147.75C251.505 144.017 252.639 140.917 254.905 138.45C257.172 135.95 260.072 134.7 263.605 134.7C267.239 134.7 270.122 135.883 272.255 138.25C274.422 140.583 275.505 143.867 275.505 148.1L275.455 148.6H256.205C256.272 151 257.072 152.933 258.605 154.4C260.139 155.867 261.972 156.6 264.105 156.6C267.039 156.6 269.339 155.133 271.005 152.2L275.105 154.2C274.005 156.267 272.472 157.883 270.505 159.05C268.572 160.217 266.372 160.8 263.905 160.8ZM256.555 144.8H270.605C270.472 143.1 269.772 141.7 268.505 140.6C267.272 139.467 265.605 138.9 263.505 138.9C261.772 138.9 260.272 139.433 259.005 140.5C257.772 141.567 256.955 143 256.555 144.8ZM288.68 160.4C286.68 160.4 285.013 159.783 283.68 158.55C282.38 157.317 281.713 155.6 281.68 153.4V139.7H277.38V135.5H281.68V128H286.28V135.5H292.28V139.7H286.28V151.9C286.28 153.533 286.596 154.65 287.23 155.25C287.863 155.817 288.58 156.1 289.38 156.1C289.746 156.1 290.096 156.067 290.43 156C290.796 155.9 291.13 155.783 291.43 155.65L292.88 159.75C291.68 160.183 290.28 160.4 288.68 160.4ZM302.85 127.05C302.85 127.95 302.533 128.717 301.9 129.35C301.266 129.983 300.5 130.3 299.6 130.3C298.7 130.3 297.933 129.983 297.3 129.35C296.666 128.717 296.35 127.95 296.35 127.05C296.35 126.15 296.666 125.383 297.3 124.75C297.933 124.117 298.7 123.8 299.6 123.8C300.5 123.8 301.266 124.117 301.9 124.75C302.533 125.383 302.85 126.15 302.85 127.05ZM301.9 135.5V160H297.3V135.5H301.9ZM307.886 135.5H312.286V138.9H312.486C313.186 137.7 314.253 136.7 315.686 135.9C317.153 135.1 318.669 134.7 320.236 134.7C323.236 134.7 325.536 135.567 327.136 137.3C328.769 139 329.586 141.433 329.586 144.6V160H324.986V144.9C324.886 140.9 322.869 138.9 318.936 138.9C317.103 138.9 315.569 139.65 314.336 141.15C313.103 142.617 312.486 144.383 312.486 146.45V160H307.886V135.5ZM345.741 156.6C348.008 156.6 349.858 155.783 351.291 154.15C352.791 152.517 353.541 150.383 353.541 147.75C353.541 145.183 352.791 143.067 351.291 141.4C349.825 139.733 347.975 138.9 345.741 138.9C343.541 138.9 341.691 139.733 340.191 141.4C338.691 143.067 337.941 145.183 337.941 147.75C337.941 150.35 338.691 152.467 340.191 154.1C341.691 155.767 343.541 156.6 345.741 156.6ZM345.591 171.6C344.225 171.6 342.941 171.417 341.741 171.05C340.541 170.717 339.441 170.233 338.441 169.6C337.475 168.967 336.641 168.217 335.941 167.35C335.241 166.483 334.708 165.517 334.341 164.45L338.691 162.65C339.191 164.083 340.058 165.233 341.291 166.1C342.525 166.967 343.958 167.4 345.591 167.4C348.091 167.4 350.041 166.65 351.441 165.15C352.841 163.65 353.541 161.583 353.541 158.95V156.6H353.341C352.475 157.9 351.291 158.933 349.791 159.7C348.325 160.433 346.725 160.8 344.991 160.8C341.791 160.8 339.041 159.55 336.741 157.05C334.475 154.483 333.341 151.383 333.341 147.75C333.341 144.117 334.475 141.033 336.741 138.5C339.041 135.967 341.791 134.7 344.991 134.7C346.725 134.7 348.325 135.083 349.791 135.85C351.291 136.583 352.475 137.6 353.341 138.9H353.541V135.5H357.941V158.95C357.941 162.883 356.825 165.967 354.591 168.2C352.325 170.467 349.325 171.6 345.591 171.6Z" fill="black"/>
<defs>
<filter id="filter0_d_9798_194" x="2" y="0" width="441.5" height="209.5" filterUnits="userSpaceOnUse" color-interpolation-filters="sRGB">
<feFlood flood-opacity="0" result="BackgroundImageFix"/>
<feColorMatrix in="SourceAlpha" type="matrix" values="0 0 0 0 0 0 0 0 0 0 0 0 0 0 0 0 0 0 127 0" result="hardAlpha"/>
<feOffset dx="-12" dy="12"/>
<feComposite in2="hardAlpha" operator="out"/>
<feColorMatrix type="matrix" values="0 0 0 0 0.203922 0 0 0 0 0.658824 0 0 0 0 0.32549 0 0 0 1 0"/>
<feBlend mode="normal" in2="BackgroundImageFix" result="effect1_dropShadow_9798_194"/>
<feBlend mode="normal" in="SourceGraphic" in2="effect1_dropShadow_9798_194" result="shape"/>
</filter>
</defs>
</svg>
