<svg width="444" height="212" viewBox="0 0 444 212" fill="none" xmlns="http://www.w3.org/2000/svg">
<g filter="url(#filter0_d_9779_112)">
<path d="M194 1H29C20.1634 1 13 8.16344 13 17V98.5C13 107.337 20.1634 114.5 29 114.5H70.5C79.3366 114.5 86.5 121.663 86.5 130.5V182.5C86.5 191.337 93.6634 198.5 102.5 198.5H426.5C435.337 198.5 442.5 191.337 442.5 182.5V106.5C442.5 97.6634 435.337 90.5 426.5 90.5H226C217.163 90.5 210 83.3366 210 74.5V17C210 8.16344 202.837 1 194 1Z" fill="white"/>
<path d="M194 1H29C20.1634 1 13 8.16344 13 17V98.5C13 107.337 20.1634 114.5 29 114.5H70.5C79.3366 114.5 86.5 121.663 86.5 130.5V182.5C86.5 191.337 93.6634 198.5 102.5 198.5H426.5C435.337 198.5 442.5 191.337 442.5 182.5V106.5C442.5 97.6634 435.337 90.5 426.5 90.5H226C217.163 90.5 210 83.3366 210 74.5V17C210 8.16344 202.837 1 194 1Z" stroke="black" stroke-width="2"/>
</g>
<path d="M92.2 66.5V81H87.6V45.2H99.8C102.9 45.2 105.533 46.2333 107.7 48.3C109.9 50.3667 111 52.8833 111 55.85C111 58.8833 109.9 61.4167 107.7 63.45C105.567 65.4833 102.933 66.5 99.8 66.5H92.2ZM92.2 49.6V62.1H99.9C101.733 62.1 103.25 61.4833 104.45 60.25C105.683 59.0167 106.3 57.55 106.3 55.85C106.3 54.1833 105.683 52.7333 104.45 51.5C103.25 50.2333 101.733 49.6 99.9 49.6H92.2ZM120.423 49.6V62.2H127.823C129.689 62.2 131.273 61.6 132.573 60.4C133.873 59.1667 134.523 57.65 134.523 55.85C134.523 54.1833 133.906 52.7333 132.673 51.5C131.473 50.2333 129.956 49.6 128.123 49.6H120.423ZM120.423 81H115.823V45.2H128.023C131.123 45.2 133.756 46.2333 135.923 48.3C138.123 50.3333 139.223 52.85 139.223 55.85C139.223 58.3167 138.406 60.5167 136.773 62.45C135.173 64.35 133.139 65.5667 130.673 66.1L130.573 66.25L140.623 80.8V81H135.173L125.523 66.5H120.423V81Z" fill="black"/>
<path d="M179.65 143.1C179.65 148.4 177.883 152.833 174.35 156.4C170.783 160 166.417 161.8 161.25 161.8C156.05 161.8 151.683 160 148.15 156.4C144.617 152.833 142.85 148.4 142.85 143.1C142.85 137.8 144.617 133.367 148.15 129.8C151.683 126.2 156.05 124.4 161.25 124.4C166.45 124.4 170.817 126.217 174.35 129.85C177.883 133.417 179.65 137.833 179.65 143.1ZM147.55 143.1C147.55 147.233 148.85 150.65 151.45 153.35C154.083 156.05 157.35 157.4 161.25 157.4C165.15 157.4 168.4 156.05 171 153.35C173.633 150.683 174.95 147.267 174.95 143.1C174.95 138.933 173.633 135.517 171 132.85C168.4 130.15 165.15 128.8 161.25 128.8C157.35 128.8 154.083 130.15 151.45 132.85C148.85 135.55 147.55 138.967 147.55 143.1ZM196.279 157.6C198.479 157.6 200.329 156.767 201.829 155.1C203.329 153.467 204.079 151.35 204.079 148.75C204.079 146.183 203.329 144.067 201.829 142.4C200.329 140.733 198.479 139.9 196.279 139.9C194.045 139.9 192.179 140.733 190.679 142.4C189.212 144.067 188.479 146.183 188.479 148.75C188.479 151.35 189.212 153.483 190.679 155.15C192.179 156.783 194.045 157.6 196.279 157.6ZM197.029 161.8C195.229 161.8 193.579 161.417 192.079 160.65C190.612 159.883 189.479 158.867 188.679 157.6H188.479L188.679 161V171.8H184.079V136.5H188.479V139.9H188.679C189.479 138.633 190.612 137.617 192.079 136.85C193.579 136.083 195.229 135.7 197.029 135.7C200.262 135.7 202.995 136.967 205.229 139.5C207.529 142.067 208.679 145.15 208.679 148.75C208.679 152.383 207.529 155.467 205.229 158C202.995 160.533 200.262 161.8 197.029 161.8ZM223.892 161.8C220.292 161.8 217.325 160.567 214.992 158.1C212.658 155.633 211.492 152.517 211.492 148.75C211.492 145.017 212.625 141.917 214.892 139.45C217.158 136.95 220.058 135.7 223.592 135.7C227.225 135.7 230.108 136.883 232.242 139.25C234.408 141.583 235.492 144.867 235.492 149.1L235.442 149.6H216.192C216.258 152 217.058 153.933 218.592 155.4C220.125 156.867 221.958 157.6 224.092 157.6C227.025 157.6 229.325 156.133 230.992 153.2L235.092 155.2C233.992 157.267 232.458 158.883 230.492 160.05C228.558 161.217 226.358 161.8 223.892 161.8ZM216.542 145.8H230.592C230.458 144.1 229.758 142.7 228.492 141.6C227.258 140.467 225.592 139.9 223.492 139.9C221.758 139.9 220.258 140.433 218.992 141.5C217.758 142.567 216.942 144 216.542 145.8ZM244.298 161H239.698V136.5H244.098V140.5H244.298C244.765 139.2 245.715 138.1 247.148 137.2C248.615 136.267 250.048 135.8 251.448 135.8C252.782 135.8 253.915 136 254.848 136.4L253.448 140.85C252.882 140.617 251.982 140.5 250.748 140.5C249.015 140.5 247.498 141.2 246.198 142.6C244.932 144 244.298 145.633 244.298 147.5V161ZM260.236 153.5C260.236 154.7 260.736 155.7 261.736 156.5C262.769 157.3 263.969 157.7 265.336 157.7C267.269 157.7 268.986 156.983 270.486 155.55C272.019 154.117 272.786 152.433 272.786 150.5C271.353 149.367 269.353 148.8 266.786 148.8C264.919 148.8 263.353 149.25 262.086 150.15C260.853 151.05 260.236 152.167 260.236 153.5ZM266.186 135.7C269.586 135.7 272.269 136.617 274.236 138.45C276.203 140.25 277.186 142.733 277.186 145.9V161H272.786V157.6H272.586C270.686 160.4 268.153 161.8 264.986 161.8C262.286 161.8 260.019 161 258.186 159.4C256.386 157.8 255.486 155.8 255.486 153.4C255.486 150.867 256.436 148.85 258.336 147.35C260.269 145.85 262.836 145.1 266.036 145.1C268.769 145.1 271.019 145.6 272.786 146.6V145.55C272.786 143.95 272.153 142.6 270.886 141.5C269.619 140.367 268.136 139.8 266.436 139.8C263.869 139.8 261.836 140.883 260.336 143.05L256.286 140.5C258.519 137.3 261.819 135.7 266.186 135.7ZM291.586 161.4C289.586 161.4 287.919 160.783 286.586 159.55C285.286 158.317 284.619 156.6 284.586 154.4V140.7H280.286V136.5H284.586V129H289.186V136.5H295.186V140.7H289.186V152.9C289.186 154.533 289.503 155.65 290.136 156.25C290.769 156.817 291.486 157.1 292.286 157.1C292.653 157.1 293.003 157.067 293.336 157C293.703 156.9 294.036 156.783 294.336 156.65L295.786 160.75C294.586 161.183 293.186 161.4 291.586 161.4ZM305.756 128.05C305.756 128.95 305.439 129.717 304.806 130.35C304.173 130.983 303.406 131.3 302.506 131.3C301.606 131.3 300.839 130.983 300.206 130.35C299.573 129.717 299.256 128.95 299.256 128.05C299.256 127.15 299.573 126.383 300.206 125.75C300.839 125.117 301.606 124.8 302.506 124.8C303.406 124.8 304.173 125.117 304.806 125.75C305.439 126.383 305.756 127.15 305.756 128.05ZM304.806 136.5V161H300.206V136.5H304.806ZM309.148 148.75C309.148 144.983 310.331 141.867 312.698 139.4C315.098 136.933 318.115 135.7 321.748 135.7C325.381 135.7 328.381 136.933 330.748 139.4C333.148 141.867 334.348 144.983 334.348 148.75C334.348 152.55 333.148 155.667 330.748 158.1C328.381 160.567 325.381 161.8 321.748 161.8C318.115 161.8 315.098 160.567 312.698 158.1C310.331 155.633 309.148 152.517 309.148 148.75ZM313.748 148.75C313.748 151.383 314.515 153.517 316.048 155.15C317.581 156.783 319.481 157.6 321.748 157.6C324.015 157.6 325.915 156.783 327.448 155.15C328.981 153.517 329.748 151.383 329.748 148.75C329.748 146.15 328.981 144.033 327.448 142.4C325.881 140.733 323.981 139.9 321.748 139.9C319.515 139.9 317.615 140.733 316.048 142.4C314.515 144.033 313.748 146.15 313.748 148.75ZM338.038 136.5H342.438V139.9H342.638C343.338 138.7 344.405 137.7 345.838 136.9C347.305 136.1 348.822 135.7 350.388 135.7C353.388 135.7 355.688 136.567 357.288 138.3C358.922 140 359.738 142.433 359.738 145.6V161H355.138V145.9C355.038 141.9 353.022 139.9 349.088 139.9C347.255 139.9 345.722 140.65 344.488 142.15C343.255 143.617 342.638 145.383 342.638 147.45V161H338.038V136.5ZM383.644 154.2C383.644 156.333 382.71 158.133 380.844 159.6C378.977 161.067 376.627 161.8 373.794 161.8C371.327 161.8 369.16 161.167 367.294 159.9C365.427 158.6 364.094 156.9 363.294 154.8L367.394 153.05C367.994 154.517 368.86 155.667 369.994 156.5C371.16 157.3 372.427 157.7 373.794 157.7C375.26 157.7 376.477 157.383 377.444 156.75C378.444 156.117 378.944 155.367 378.944 154.5C378.944 152.933 377.744 151.783 375.344 151.05L371.144 150C366.377 148.8 363.994 146.5 363.994 143.1C363.994 140.867 364.894 139.083 366.694 137.75C368.527 136.383 370.86 135.7 373.694 135.7C375.86 135.7 377.81 136.217 379.544 137.25C381.31 138.283 382.544 139.667 383.244 141.4L379.144 143.1C378.677 142.067 377.91 141.267 376.844 140.7C375.81 140.1 374.644 139.8 373.344 139.8C372.144 139.8 371.06 140.1 370.094 140.7C369.16 141.3 368.694 142.033 368.694 142.9C368.694 144.3 370.01 145.3 372.644 145.9L376.344 146.85C381.21 148.05 383.644 150.5 383.644 154.2Z" fill="black"/>
<defs>
<filter id="filter0_d_9779_112" x="0" y="0" width="443.5" height="211.5" filterUnits="userSpaceOnUse" color-interpolation-filters="sRGB">
<feFlood flood-opacity="0" result="BackgroundImageFix"/>
<feColorMatrix in="SourceAlpha" type="matrix" values="0 0 0 0 0 0 0 0 0 0 0 0 0 0 0 0 0 0 127 0" result="hardAlpha"/>
<feOffset dx="-12" dy="12"/>
<feComposite in2="hardAlpha" operator="out"/>
<feColorMatrix type="matrix" values="0 0 0 0 0.203922 0 0 0 0 0.658824 0 0 0 0 0.32549 0 0 0 1 0"/>
<feBlend mode="normal" in2="BackgroundImageFix" result="effect1_dropShadow_9779_112"/>
<feBlend mode="normal" in="SourceGraphic" in2="effect1_dropShadow_9779_112" result="shape"/>
</filter>
</defs>
</svg>
