<svg width="501" height="169" viewBox="0 0 501 169" fill="none" xmlns="http://www.w3.org/2000/svg">
<g filter="url(#filter0_d_9779_109)">
<path d="M388 1L29 1.00002C20.1634 1.00002 13 8.16347 13 17V116C13 124.837 20.1634 132 29 132H92.5C99.1274 132 104.5 137.373 104.5 144C104.5 150.627 109.873 156 116.5 156H483.5C492.337 156 499.5 148.837 499.5 140V56.5C499.5 47.6635 492.337 40.5 483.5 40.5L420 40.5C411.163 40.5 404 33.3366 404 24.5V17C404 8.16344 396.837 1 388 1Z" fill="white"/>
<path d="M388 1L29 1.00002C20.1634 1.00002 13 8.16347 13 17V116C13 124.837 20.1634 132 29 132H92.5C99.1274 132 104.5 137.373 104.5 144C104.5 150.627 109.873 156 116.5 156H483.5C492.337 156 499.5 148.837 499.5 140V56.5C499.5 47.6635 492.337 40.5 483.5 40.5L420 40.5C411.163 40.5 404 33.3366 404 24.5V17C404 8.16344 396.837 1 388 1Z" stroke="black" stroke-width="2"/>
</g>
<path d="M110.84 88.54C110.84 92.3 109.46 95.32 106.7 97.6C103.9 99.84 100.5 100.96 96.5 100.96C92.94 100.96 89.8 99.92 87.08 97.84C84.36 95.76 82.48 92.92 81.44 89.32L86.72 87.16C87.08 88.44 87.58 89.6 88.22 90.64C88.86 91.68 89.6 92.58 90.44 93.34C91.32 94.06 92.28 94.64 93.32 95.08C94.36 95.48 95.46 95.68 96.62 95.68C99.14 95.68 101.2 95.04 102.8 93.76C104.4 92.44 105.2 90.7 105.2 88.54C105.2 86.74 104.54 85.2 103.22 83.92C101.98 82.68 99.66 81.48 96.26 80.32C92.82 79.08 90.68 78.24 89.84 77.8C85.28 75.48 83 72.06 83 67.54C83 64.38 84.26 61.68 86.78 59.44C89.34 57.2 92.48 56.08 96.2 56.08C99.48 56.08 102.32 56.92 104.72 58.6C107.12 60.24 108.72 62.3 109.52 64.78L104.36 66.94C103.88 65.34 102.92 64.02 101.48 62.98C100.08 61.9 98.36 61.36 96.32 61.36C94.16 61.36 92.34 61.96 90.86 63.16C89.38 64.28 88.64 65.74 88.64 67.54C88.64 69.02 89.22 70.3 90.38 71.38C91.66 72.46 94.44 73.74 98.72 75.22C103.08 76.7 106.18 78.52 108.02 80.68C109.9 82.8 110.84 85.42 110.84 88.54ZM114.844 85.3C114.844 80.78 116.264 77.04 119.104 74.08C121.984 71.12 125.604 69.64 129.964 69.64C134.324 69.64 137.924 71.12 140.764 74.08C143.644 77.04 145.084 80.78 145.084 85.3C145.084 89.86 143.644 93.6 140.764 96.52C137.924 99.48 134.324 100.96 129.964 100.96C125.604 100.96 121.984 99.48 119.104 96.52C116.264 93.56 114.844 89.82 114.844 85.3ZM120.364 85.3C120.364 88.46 121.284 91.02 123.124 92.98C124.964 94.94 127.244 95.92 129.964 95.92C132.684 95.92 134.964 94.94 136.804 92.98C138.644 91.02 139.564 88.46 139.564 85.3C139.564 82.18 138.644 79.64 136.804 77.68C134.924 75.68 132.644 74.68 129.964 74.68C127.284 74.68 125.004 75.68 123.124 77.68C121.284 79.64 120.364 82.18 120.364 85.3ZM163.538 100.96C159.178 100.96 155.558 99.48 152.678 96.52C149.838 93.48 148.418 89.74 148.418 85.3C148.418 80.78 149.838 77.04 152.678 74.08C155.558 71.12 159.178 69.64 163.538 69.64C166.538 69.64 169.158 70.4 171.398 71.92C173.638 73.4 175.318 75.46 176.438 78.1L171.398 80.2C169.838 76.52 167.098 74.68 163.178 74.68C160.658 74.68 158.478 75.7 156.638 77.74C154.838 79.78 153.938 82.3 153.938 85.3C153.938 88.3 154.838 90.82 156.638 92.86C158.478 94.9 160.658 95.92 163.178 95.92C167.218 95.92 170.058 94.08 171.698 90.4L176.618 92.5C175.538 95.14 173.838 97.22 171.518 98.74C169.238 100.22 166.578 100.96 163.538 100.96ZM188.586 60.46C188.586 61.54 188.206 62.46 187.446 63.22C186.686 63.98 185.766 64.36 184.686 64.36C183.606 64.36 182.686 63.98 181.926 63.22C181.166 62.46 180.786 61.54 180.786 60.46C180.786 59.38 181.166 58.46 181.926 57.7C182.686 56.94 183.606 56.56 184.686 56.56C185.766 56.56 186.686 56.94 187.446 57.7C188.206 58.46 188.586 59.38 188.586 60.46ZM187.446 70.6V100H181.926V70.6H187.446ZM198.357 91C198.357 92.44 198.957 93.64 200.157 94.6C201.397 95.56 202.837 96.04 204.477 96.04C206.797 96.04 208.857 95.18 210.657 93.46C212.497 91.74 213.417 89.72 213.417 87.4C211.697 86.04 209.297 85.36 206.217 85.36C203.977 85.36 202.097 85.9 200.577 86.98C199.097 88.06 198.357 89.4 198.357 91ZM205.497 69.64C209.577 69.64 212.797 70.74 215.157 72.94C217.517 75.1 218.697 78.08 218.697 81.88V100H213.417V95.92H213.177C210.897 99.28 207.857 100.96 204.057 100.96C200.817 100.96 198.097 100 195.897 98.08C193.737 96.16 192.657 93.76 192.657 90.88C192.657 87.84 193.797 85.42 196.077 83.62C198.397 81.82 201.477 80.92 205.317 80.92C208.597 80.92 211.297 81.52 213.417 82.72V81.46C213.417 79.54 212.657 77.92 211.137 76.6C209.617 75.24 207.837 74.56 205.797 74.56C202.717 74.56 200.277 75.86 198.477 78.46L193.617 75.4C196.297 71.56 200.257 69.64 205.497 69.64ZM230.443 57.04V100H224.923V57.04H230.443ZM255.872 100H250.352V70.6H255.632V74.68H255.872C256.712 73.24 257.992 72.04 259.712 71.08C261.472 70.12 263.212 69.64 264.932 69.64C267.092 69.64 268.992 70.14 270.632 71.14C272.272 72.14 273.472 73.52 274.232 75.28C276.672 71.52 280.052 69.64 284.372 69.64C287.772 69.64 290.392 70.68 292.232 72.76C294.072 74.84 294.992 77.8 294.992 81.64V100H289.472V82.48C289.472 79.72 288.972 77.74 287.972 76.54C286.972 75.3 285.292 74.68 282.932 74.68C280.812 74.68 279.032 75.58 277.592 77.38C276.152 79.18 275.432 81.3 275.432 83.74V100H269.912V82.48C269.912 79.72 269.412 77.74 268.412 76.54C267.412 75.3 265.732 74.68 263.372 74.68C261.252 74.68 259.472 75.58 258.032 77.38C256.592 79.18 255.872 81.3 255.872 83.74V100ZM314.646 100.96C310.326 100.96 306.766 99.48 303.966 96.52C301.166 93.56 299.766 89.82 299.766 85.3C299.766 80.82 301.126 77.1 303.846 74.14C306.566 71.14 310.046 69.64 314.286 69.64C318.646 69.64 322.106 71.06 324.666 73.9C327.266 76.7 328.566 80.64 328.566 85.72L328.506 86.32H305.406C305.486 89.2 306.446 91.52 308.286 93.28C310.126 95.04 312.326 95.92 314.886 95.92C318.406 95.92 321.166 94.16 323.166 90.64L328.086 93.04C326.766 95.52 324.926 97.46 322.566 98.86C320.246 100.26 317.606 100.96 314.646 100.96ZM305.826 81.76H322.686C322.526 79.72 321.686 78.04 320.166 76.72C318.686 75.36 316.686 74.68 314.166 74.68C312.086 74.68 310.286 75.32 308.766 76.6C307.286 77.88 306.306 79.6 305.826 81.76ZM347.107 95.92C349.827 95.92 352.047 94.94 353.767 92.98C355.567 91.02 356.467 88.46 356.467 85.3C356.467 82.22 355.567 79.68 353.767 77.68C352.007 75.68 349.787 74.68 347.107 74.68C344.467 74.68 342.247 75.68 340.447 77.68C338.647 79.68 337.747 82.22 337.747 85.3C337.747 88.42 338.647 90.96 340.447 92.92C342.247 94.92 344.467 95.92 347.107 95.92ZM346.207 100.96C342.367 100.96 339.067 99.44 336.307 96.4C333.587 93.32 332.227 89.62 332.227 85.3C332.227 80.98 333.587 77.28 336.307 74.2C339.067 71.16 342.367 69.64 346.207 69.64C348.367 69.64 350.327 70.1 352.087 71.02C353.887 71.94 355.267 73.16 356.227 74.68H356.467L356.227 70.6V57.04H361.747V100H356.467V95.92H356.227C355.267 97.44 353.887 98.66 352.087 99.58C350.327 100.5 348.367 100.96 346.207 100.96ZM375.617 60.46C375.617 61.54 375.237 62.46 374.477 63.22C373.717 63.98 372.797 64.36 371.717 64.36C370.637 64.36 369.717 63.98 368.957 63.22C368.197 62.46 367.817 61.54 367.817 60.46C367.817 59.38 368.197 58.46 368.957 57.7C369.717 56.94 370.637 56.56 371.717 56.56C372.797 56.56 373.717 56.94 374.477 57.7C375.237 58.46 375.617 59.38 375.617 60.46ZM374.477 70.6V100H368.957V70.6H374.477ZM385.388 91C385.388 92.44 385.988 93.64 387.188 94.6C388.428 95.56 389.868 96.04 391.508 96.04C393.828 96.04 395.888 95.18 397.688 93.46C399.528 91.74 400.448 89.72 400.448 87.4C398.728 86.04 396.328 85.36 393.248 85.36C391.008 85.36 389.128 85.9 387.608 86.98C386.128 88.06 385.388 89.4 385.388 91ZM392.528 69.64C396.608 69.64 399.828 70.74 402.188 72.94C404.548 75.1 405.728 78.08 405.728 81.88V100H400.448V95.92H400.208C397.928 99.28 394.888 100.96 391.088 100.96C387.848 100.96 385.128 100 382.928 98.08C380.768 96.16 379.688 93.76 379.688 90.88C379.688 87.84 380.828 85.42 383.108 83.62C385.428 81.82 388.508 80.92 392.348 80.92C395.628 80.92 398.328 81.52 400.448 82.72V81.46C400.448 79.54 399.688 77.92 398.168 76.6C396.648 75.24 394.868 74.56 392.828 74.56C389.748 74.56 387.308 75.86 385.508 78.46L380.648 75.4C383.328 71.56 387.288 69.64 392.528 69.64Z" fill="black"/>
<defs>
<filter id="filter0_d_9779_109" x="0" y="0" width="500.5" height="169" filterUnits="userSpaceOnUse" color-interpolation-filters="sRGB">
<feFlood flood-opacity="0" result="BackgroundImageFix"/>
<feColorMatrix in="SourceAlpha" type="matrix" values="0 0 0 0 0 0 0 0 0 0 0 0 0 0 0 0 0 0 127 0" result="hardAlpha"/>
<feOffset dx="-12" dy="12"/>
<feComposite in2="hardAlpha" operator="out"/>
<feColorMatrix type="matrix" values="0 0 0 0 0.976471 0 0 0 0 0.670588 0 0 0 0 0 0 0 0 1 0"/>
<feBlend mode="normal" in2="BackgroundImageFix" result="effect1_dropShadow_9779_109"/>
<feBlend mode="normal" in="SourceGraphic" in2="effect1_dropShadow_9779_109" result="shape"/>
</filter>
</defs>
</svg>
