<svg width="501" height="169" viewBox="0 0 501 169" fill="none" xmlns="http://www.w3.org/2000/svg">
<path d="M375 14L16 14C7.16344 14 0 21.1635 0 30V129C0 137.837 7.16344 145 16 145H79.5C86.1274 145 91.5 150.373 91.5 157C91.5 163.627 96.8726 169 103.5 169H470.5C479.337 169 486.5 161.837 486.5 153V69.5C486.5 60.6635 479.337 53.5 470.5 53.5L407 53.5C398.163 53.5 391 46.3366 391 37.5V30C391 21.1634 383.837 14 375 14Z" fill="#F9AB00"/>
<path d="M30 1H389C397.284 1 404 7.71573 404 16V23.5C404 32.8888 411.611 40.5 421 40.5H484.5C492.784 40.5 499.5 47.2157 499.5 55.5V139C499.5 147.284 492.784 154 484.5 154H117.5C111.425 154 106.5 149.075 106.5 143C106.5 135.82 100.68 130 93.5 130H30C21.7157 130 15 123.284 15 115V16C15 7.71574 21.7157 1 30 1Z" fill="white" stroke="black" stroke-width="2"/>
<path d="M111.84 87.54C111.84 91.3 110.46 94.32 107.7 96.6C104.9 98.84 101.5 99.96 97.5 99.96C93.94 99.96 90.8 98.92 88.08 96.84C85.36 94.76 83.48 91.92 82.44 88.32L87.72 86.16C88.08 87.44 88.58 88.6 89.22 89.64C89.86 90.68 90.6 91.58 91.44 92.34C92.32 93.06 93.28 93.64 94.32 94.08C95.36 94.48 96.46 94.68 97.62 94.68C100.14 94.68 102.2 94.04 103.8 92.76C105.4 91.44 106.2 89.7 106.2 87.54C106.2 85.74 105.54 84.2 104.22 82.92C102.98 81.68 100.66 80.48 97.26 79.32C93.82 78.08 91.68 77.24 90.84 76.8C86.28 74.48 84 71.06 84 66.54C84 63.38 85.26 60.68 87.78 58.44C90.34 56.2 93.48 55.08 97.2 55.08C100.48 55.08 103.32 55.92 105.72 57.6C108.12 59.24 109.72 61.3 110.52 63.78L105.36 65.94C104.88 64.34 103.92 63.02 102.48 61.98C101.08 60.9 99.36 60.36 97.32 60.36C95.16 60.36 93.34 60.96 91.86 62.16C90.38 63.28 89.64 64.74 89.64 66.54C89.64 68.02 90.22 69.3 91.38 70.38C92.66 71.46 95.44 72.74 99.72 74.22C104.08 75.7 107.18 77.52 109.02 79.68C110.9 81.8 111.84 84.42 111.84 87.54ZM115.844 84.3C115.844 79.78 117.264 76.04 120.104 73.08C122.984 70.12 126.604 68.64 130.964 68.64C135.324 68.64 138.924 70.12 141.764 73.08C144.644 76.04 146.084 79.78 146.084 84.3C146.084 88.86 144.644 92.6 141.764 95.52C138.924 98.48 135.324 99.96 130.964 99.96C126.604 99.96 122.984 98.48 120.104 95.52C117.264 92.56 115.844 88.82 115.844 84.3ZM121.364 84.3C121.364 87.46 122.284 90.02 124.124 91.98C125.964 93.94 128.244 94.92 130.964 94.92C133.684 94.92 135.964 93.94 137.804 91.98C139.644 90.02 140.564 87.46 140.564 84.3C140.564 81.18 139.644 78.64 137.804 76.68C135.924 74.68 133.644 73.68 130.964 73.68C128.284 73.68 126.004 74.68 124.124 76.68C122.284 78.64 121.364 81.18 121.364 84.3ZM164.538 99.96C160.178 99.96 156.558 98.48 153.678 95.52C150.838 92.48 149.418 88.74 149.418 84.3C149.418 79.78 150.838 76.04 153.678 73.08C156.558 70.12 160.178 68.64 164.538 68.64C167.538 68.64 170.158 69.4 172.398 70.92C174.638 72.4 176.318 74.46 177.438 77.1L172.398 79.2C170.838 75.52 168.098 73.68 164.178 73.68C161.658 73.68 159.478 74.7 157.638 76.74C155.838 78.78 154.938 81.3 154.938 84.3C154.938 87.3 155.838 89.82 157.638 91.86C159.478 93.9 161.658 94.92 164.178 94.92C168.218 94.92 171.058 93.08 172.698 89.4L177.618 91.5C176.538 94.14 174.838 96.22 172.518 97.74C170.238 99.22 167.578 99.96 164.538 99.96ZM189.586 59.46C189.586 60.54 189.206 61.46 188.446 62.22C187.686 62.98 186.766 63.36 185.686 63.36C184.606 63.36 183.686 62.98 182.926 62.22C182.166 61.46 181.786 60.54 181.786 59.46C181.786 58.38 182.166 57.46 182.926 56.7C183.686 55.94 184.606 55.56 185.686 55.56C186.766 55.56 187.686 55.94 188.446 56.7C189.206 57.46 189.586 58.38 189.586 59.46ZM188.446 69.6V99H182.926V69.6H188.446ZM199.357 90C199.357 91.44 199.957 92.64 201.157 93.6C202.397 94.56 203.837 95.04 205.477 95.04C207.797 95.04 209.857 94.18 211.657 92.46C213.497 90.74 214.417 88.72 214.417 86.4C212.697 85.04 210.297 84.36 207.217 84.36C204.977 84.36 203.097 84.9 201.577 85.98C200.097 87.06 199.357 88.4 199.357 90ZM206.497 68.64C210.577 68.64 213.797 69.74 216.157 71.94C218.517 74.1 219.697 77.08 219.697 80.88V99H214.417V94.92H214.177C211.897 98.28 208.857 99.96 205.057 99.96C201.817 99.96 199.097 99 196.897 97.08C194.737 95.16 193.657 92.76 193.657 89.88C193.657 86.84 194.797 84.42 197.077 82.62C199.397 80.82 202.477 79.92 206.317 79.92C209.597 79.92 212.297 80.52 214.417 81.72V80.46C214.417 78.54 213.657 76.92 212.137 75.6C210.617 74.24 208.837 73.56 206.797 73.56C203.717 73.56 201.277 74.86 199.477 77.46L194.617 74.4C197.297 70.56 201.257 68.64 206.497 68.64ZM231.443 56.04V99H225.923V56.04H231.443ZM256.872 99H251.352V69.6H256.632V73.68H256.872C257.712 72.24 258.992 71.04 260.712 70.08C262.472 69.12 264.212 68.64 265.932 68.64C268.092 68.64 269.992 69.14 271.632 70.14C273.272 71.14 274.472 72.52 275.232 74.28C277.672 70.52 281.052 68.64 285.372 68.64C288.772 68.64 291.392 69.68 293.232 71.76C295.072 73.84 295.992 76.8 295.992 80.64V99H290.472V81.48C290.472 78.72 289.972 76.74 288.972 75.54C287.972 74.3 286.292 73.68 283.932 73.68C281.812 73.68 280.032 74.58 278.592 76.38C277.152 78.18 276.432 80.3 276.432 82.74V99H270.912V81.48C270.912 78.72 270.412 76.74 269.412 75.54C268.412 74.3 266.732 73.68 264.372 73.68C262.252 73.68 260.472 74.58 259.032 76.38C257.592 78.18 256.872 80.3 256.872 82.74V99ZM315.646 99.96C311.326 99.96 307.766 98.48 304.966 95.52C302.166 92.56 300.766 88.82 300.766 84.3C300.766 79.82 302.126 76.1 304.846 73.14C307.566 70.14 311.046 68.64 315.286 68.64C319.646 68.64 323.106 70.06 325.666 72.9C328.266 75.7 329.566 79.64 329.566 84.72L329.506 85.32H306.406C306.486 88.2 307.446 90.52 309.286 92.28C311.126 94.04 313.326 94.92 315.886 94.92C319.406 94.92 322.166 93.16 324.166 89.64L329.086 92.04C327.766 94.52 325.926 96.46 323.566 97.86C321.246 99.26 318.606 99.96 315.646 99.96ZM306.826 80.76H323.686C323.526 78.72 322.686 77.04 321.166 75.72C319.686 74.36 317.686 73.68 315.166 73.68C313.086 73.68 311.286 74.32 309.766 75.6C308.286 76.88 307.306 78.6 306.826 80.76ZM348.107 94.92C350.827 94.92 353.047 93.94 354.767 91.98C356.567 90.02 357.467 87.46 357.467 84.3C357.467 81.22 356.567 78.68 354.767 76.68C353.007 74.68 350.787 73.68 348.107 73.68C345.467 73.68 343.247 74.68 341.447 76.68C339.647 78.68 338.747 81.22 338.747 84.3C338.747 87.42 339.647 89.96 341.447 91.92C343.247 93.92 345.467 94.92 348.107 94.92ZM347.207 99.96C343.367 99.96 340.067 98.44 337.307 95.4C334.587 92.32 333.227 88.62 333.227 84.3C333.227 79.98 334.587 76.28 337.307 73.2C340.067 70.16 343.367 68.64 347.207 68.64C349.367 68.64 351.327 69.1 353.087 70.02C354.887 70.94 356.267 72.16 357.227 73.68H357.467L357.227 69.6V56.04H362.747V99H357.467V94.92H357.227C356.267 96.44 354.887 97.66 353.087 98.58C351.327 99.5 349.367 99.96 347.207 99.96ZM376.617 59.46C376.617 60.54 376.237 61.46 375.477 62.22C374.717 62.98 373.797 63.36 372.717 63.36C371.637 63.36 370.717 62.98 369.957 62.22C369.197 61.46 368.817 60.54 368.817 59.46C368.817 58.38 369.197 57.46 369.957 56.7C370.717 55.94 371.637 55.56 372.717 55.56C373.797 55.56 374.717 55.94 375.477 56.7C376.237 57.46 376.617 58.38 376.617 59.46ZM375.477 69.6V99H369.957V69.6H375.477ZM386.388 90C386.388 91.44 386.988 92.64 388.188 93.6C389.428 94.56 390.868 95.04 392.508 95.04C394.828 95.04 396.888 94.18 398.688 92.46C400.528 90.74 401.448 88.72 401.448 86.4C399.728 85.04 397.328 84.36 394.248 84.36C392.008 84.36 390.128 84.9 388.608 85.98C387.128 87.06 386.388 88.4 386.388 90ZM393.528 68.64C397.608 68.64 400.828 69.74 403.188 71.94C405.548 74.1 406.728 77.08 406.728 80.88V99H401.448V94.92H401.208C398.928 98.28 395.888 99.96 392.088 99.96C388.848 99.96 386.128 99 383.928 97.08C381.768 95.16 380.688 92.76 380.688 89.88C380.688 86.84 381.828 84.42 384.108 82.62C386.428 80.82 389.508 79.92 393.348 79.92C396.628 79.92 399.328 80.52 401.448 81.72V80.46C401.448 78.54 400.688 76.92 399.168 75.6C397.648 74.24 395.868 73.56 393.828 73.56C390.748 73.56 388.308 74.86 386.508 77.46L381.648 74.4C384.328 70.56 388.288 68.64 393.528 68.64Z" fill="black"/>
</svg>
