<svg width="440" height="311" viewBox="0 0 440 311" fill="none" xmlns="http://www.w3.org/2000/svg">
<g filter="url(#filter0_d_9779_113)">
<path d="M254.5 1H46C37.1634 1 30 8.16345 30 17V126C30 134.837 37.1634 142 46 142H141.5C148.956 142 155 148.044 155 155.5C155 162.956 148.956 169 141.5 169H29C20.1634 169 13 176.163 13 185V214C13 222.837 20.1634 230 29 230H171.5C180.337 230 187.5 237.163 187.5 246V281.5C187.5 290.337 194.663 297.5 203.5 297.5H396.5C405.337 297.5 412.5 290.337 412.5 281.5V246C412.5 237.163 405.337 230 396.5 230H305.25C297.104 230 290.5 223.396 290.5 215.25C290.5 207.104 297.104 200.5 305.25 200.5H423C431.837 200.5 439 193.337 439 184.5V151C439 142.163 431.837 135 423 135H286.5C277.663 135 270.5 127.837 270.5 119V17C270.5 8.16344 263.337 1 254.5 1Z" fill="white"/>
<path d="M254.5 1H46C37.1634 1 30 8.16345 30 17V126C30 134.837 37.1634 142 46 142H141.5C148.956 142 155 148.044 155 155.5C155 162.956 148.956 169 141.5 169H29C20.1634 169 13 176.163 13 185V214C13 222.837 20.1634 230 29 230H171.5C180.337 230 187.5 237.163 187.5 246V281.5C187.5 290.337 194.663 297.5 203.5 297.5H396.5C405.337 297.5 412.5 290.337 412.5 281.5V246C412.5 237.163 405.337 230 396.5 230H305.25C297.104 230 290.5 223.396 290.5 215.25C290.5 207.104 297.104 200.5 305.25 200.5H423C431.837 200.5 439 193.337 439 184.5V151C439 142.163 431.837 135 423 135H286.5C277.663 135 270.5 127.837 270.5 119V17C270.5 8.16344 263.337 1 254.5 1Z" stroke="black" stroke-width="2"/>
</g>
<path d="M106.96 52.32V90H101.44V52.32H89.44V47.04H118.96V52.32H106.96ZM132.158 90.96C127.838 90.96 124.278 89.48 121.478 86.52C118.678 83.56 117.278 79.82 117.278 75.3C117.278 70.82 118.638 67.1 121.358 64.14C124.078 61.14 127.558 59.64 131.798 59.64C136.158 59.64 139.618 61.06 142.178 63.9C144.778 66.7 146.078 70.64 146.078 75.72L146.018 76.32H122.918C122.998 79.2 123.958 81.52 125.798 83.28C127.638 85.04 129.838 85.92 132.398 85.92C135.918 85.92 138.678 84.16 140.678 80.64L145.598 83.04C144.278 85.52 142.438 87.46 140.078 88.86C137.758 90.26 135.118 90.96 132.158 90.96ZM123.338 71.76H140.198C140.038 69.72 139.198 68.04 137.678 66.72C136.198 65.36 134.198 64.68 131.678 64.68C129.598 64.68 127.798 65.32 126.278 66.6C124.798 67.88 123.818 69.6 123.338 71.76ZM164.859 90.96C160.499 90.96 156.879 89.48 153.999 86.52C151.159 83.48 149.739 79.74 149.739 75.3C149.739 70.78 151.159 67.04 153.999 64.08C156.879 61.12 160.499 59.64 164.859 59.64C167.859 59.64 170.479 60.4 172.719 61.92C174.959 63.4 176.639 65.46 177.759 68.1L172.719 70.2C171.159 66.52 168.419 64.68 164.499 64.68C161.979 64.68 159.799 65.7 157.959 67.74C156.159 69.78 155.259 72.3 155.259 75.3C155.259 78.3 156.159 80.82 157.959 82.86C159.799 84.9 161.979 85.92 164.499 85.92C168.539 85.92 171.379 84.08 173.019 80.4L177.939 82.5C176.859 85.14 175.159 87.22 172.839 88.74C170.559 90.22 167.899 90.96 164.859 90.96ZM182.766 47.04H188.286V60.6L188.046 64.68H188.286C189.126 63.24 190.406 62.04 192.126 61.08C193.886 60.12 195.706 59.64 197.586 59.64C201.186 59.64 203.946 60.68 205.866 62.76C207.826 64.8 208.806 67.72 208.806 71.52V90H203.286V72.6C203.286 67.32 200.946 64.68 196.266 64.68C194.026 64.68 192.126 65.62 190.566 67.5C189.046 69.34 188.286 71.5 188.286 73.98V90H182.766V47.04Z" fill="black"/>
<path d="M315.28 158.88L310.6 171.8H320.12L315.44 158.88H315.28ZM306.56 183H302.48L313.28 154.36H317.44L328.24 183H324.16L321.4 175.24H309.36L306.56 183ZM335.279 183H331.599V154.36H335.279V183ZM354.572 154.36L342.692 183H339.252L351.132 154.36H354.572ZM362.193 183H358.513V154.36H362.193L372.153 171.8H372.313L382.273 154.36H385.953V183H382.273V166L382.433 161.2H382.273L373.313 176.92H371.153L362.193 161.2H362.033L362.193 166V183ZM407.796 183H391.716V154.36H395.396V179.48H407.796V183Z" fill="black"/>
<path d="M70.4 185.36H74.24L66.6 214H62.84L56.68 195.12H56.52L50.36 214H46.6L38.64 185.36H42.48L48.52 207.88H48.68L54.88 189.2H58.32L64.52 207.88H64.68L70.4 185.36ZM83.7275 214.64C80.8475 214.64 78.4742 213.653 76.6075 211.68C74.7408 209.707 73.8075 207.213 73.8075 204.2C73.8075 201.213 74.7142 198.733 76.5275 196.76C78.3408 194.76 80.6608 193.76 83.4875 193.76C86.3942 193.76 88.7008 194.707 90.4075 196.6C92.1408 198.467 93.0075 201.093 93.0075 204.48L92.9675 204.88H77.5675C77.6208 206.8 78.2608 208.347 79.4875 209.52C80.7142 210.693 82.1808 211.28 83.8875 211.28C86.2342 211.28 88.0742 210.107 89.4075 207.76L92.6875 209.36C91.8075 211.013 90.5808 212.307 89.0075 213.24C87.4608 214.173 85.7008 214.64 83.7275 214.64ZM77.8475 201.84H89.0875C88.9808 200.48 88.4208 199.36 87.4075 198.48C86.4208 197.573 85.0875 197.12 83.4075 197.12C82.0208 197.12 80.8208 197.547 79.8075 198.4C78.8208 199.253 78.1675 200.4 77.8475 201.84ZM106.733 214.64C105.293 214.64 103.973 214.333 102.773 213.72C101.599 213.107 100.693 212.293 100.053 211.28H99.8928V214H96.3728V185.36H100.053V194.4L99.8928 197.12H100.053C100.693 196.107 101.599 195.293 102.773 194.68C103.973 194.067 105.293 193.76 106.733 193.76C109.319 193.76 111.506 194.773 113.293 196.8C115.133 198.853 116.053 201.32 116.053 204.2C116.053 207.107 115.133 209.573 113.293 211.6C111.506 213.627 109.319 214.64 106.733 214.64ZM106.133 211.28C107.893 211.28 109.373 210.613 110.573 209.28C111.773 207.973 112.373 206.28 112.373 204.2C112.373 202.147 111.773 200.453 110.573 199.12C109.373 197.787 107.893 197.12 106.133 197.12C104.346 197.12 102.853 197.787 101.653 199.12C100.479 200.453 99.8928 202.147 99.8928 204.2C99.8928 206.28 100.479 207.987 101.653 209.32C102.853 210.627 104.346 211.28 106.133 211.28ZM137.009 211.28C138.822 211.28 140.302 210.627 141.449 209.32C142.649 208.013 143.249 206.307 143.249 204.2C143.249 202.147 142.649 200.453 141.449 199.12C140.275 197.787 138.795 197.12 137.009 197.12C135.249 197.12 133.769 197.787 132.569 199.12C131.369 200.453 130.769 202.147 130.769 204.2C130.769 206.28 131.369 207.973 132.569 209.28C133.769 210.613 135.249 211.28 137.009 211.28ZM136.409 214.64C133.849 214.64 131.649 213.627 129.809 211.6C127.995 209.547 127.089 207.08 127.089 204.2C127.089 201.32 127.995 198.853 129.809 196.8C131.649 194.773 133.849 193.76 136.409 193.76C137.849 193.76 139.155 194.067 140.329 194.68C141.529 195.293 142.449 196.107 143.089 197.12H143.249L143.089 194.4V185.36H146.769V214H143.249V211.28H143.089C142.449 212.293 141.529 213.107 140.329 213.72C139.155 214.333 137.849 214.64 136.409 214.64ZM159.86 214.64C156.98 214.64 154.607 213.653 152.74 211.68C150.874 209.707 149.94 207.213 149.94 204.2C149.94 201.213 150.847 198.733 152.66 196.76C154.474 194.76 156.794 193.76 159.62 193.76C162.527 193.76 164.834 194.707 166.54 196.6C168.274 198.467 169.14 201.093 169.14 204.48L169.1 204.88H153.7C153.754 206.8 154.394 208.347 155.62 209.52C156.847 210.693 158.314 211.28 160.02 211.28C162.367 211.28 164.207 210.107 165.54 207.76L168.82 209.36C167.94 211.013 166.714 212.307 165.14 213.24C163.594 214.173 161.834 214.64 159.86 214.64ZM153.98 201.84H165.22C165.114 200.48 164.554 199.36 163.54 198.48C162.554 197.573 161.22 197.12 159.54 197.12C158.154 197.12 156.954 197.547 155.94 198.4C154.954 199.253 154.3 200.4 153.98 201.84ZM181.635 214H177.955L170.035 194.4H174.035L179.795 209.6H179.875L185.715 194.4H189.635L181.635 214Z" fill="black"/>
<path d="M249.28 250.88L244.6 263.8H254.12L249.44 250.88H249.28ZM240.56 275H236.48L247.28 246.36H251.44L262.24 275H258.16L255.4 267.24H243.36L240.56 275ZM274.754 272.28C276.514 272.28 277.994 271.613 279.194 270.28C280.394 268.973 280.994 267.28 280.994 265.2C280.994 263.147 280.394 261.453 279.194 260.12C277.994 258.787 276.514 258.12 274.754 258.12C272.967 258.12 271.474 258.787 270.274 260.12C269.101 261.453 268.514 263.147 268.514 265.2C268.514 267.28 269.101 268.987 270.274 270.32C271.474 271.627 272.967 272.28 274.754 272.28ZM275.354 275.64C273.914 275.64 272.594 275.333 271.394 274.72C270.221 274.107 269.314 273.293 268.674 272.28H268.514L268.674 275V283.64H264.994V255.4H268.514V258.12H268.674C269.314 257.107 270.221 256.293 271.394 255.68C272.594 255.067 273.914 254.76 275.354 254.76C277.941 254.76 280.127 255.773 281.914 257.8C283.754 259.853 284.674 262.32 284.674 265.2C284.674 268.107 283.754 270.573 281.914 272.6C280.127 274.627 277.941 275.64 275.354 275.64ZM297.254 272.28C299.014 272.28 300.494 271.613 301.694 270.28C302.894 268.973 303.494 267.28 303.494 265.2C303.494 263.147 302.894 261.453 301.694 260.12C300.494 258.787 299.014 258.12 297.254 258.12C295.467 258.12 293.974 258.787 292.774 260.12C291.601 261.453 291.014 263.147 291.014 265.2C291.014 267.28 291.601 268.987 292.774 270.32C293.974 271.627 295.467 272.28 297.254 272.28ZM297.854 275.64C296.414 275.64 295.094 275.333 293.894 274.72C292.721 274.107 291.814 273.293 291.174 272.28H291.014L291.174 275V283.64H287.494V255.4H291.014V258.12H291.174C291.814 257.107 292.721 256.293 293.894 255.68C295.094 255.067 296.414 254.76 297.854 254.76C300.441 254.76 302.627 255.773 304.414 257.8C306.254 259.853 307.174 262.32 307.174 265.2C307.174 268.107 306.254 270.573 304.414 272.6C302.627 274.627 300.441 275.64 297.854 275.64ZM328.134 272.28C329.947 272.28 331.427 271.627 332.574 270.32C333.774 269.013 334.374 267.307 334.374 265.2C334.374 263.147 333.774 261.453 332.574 260.12C331.4 258.787 329.92 258.12 328.134 258.12C326.374 258.12 324.894 258.787 323.694 260.12C322.494 261.453 321.894 263.147 321.894 265.2C321.894 267.28 322.494 268.973 323.694 270.28C324.894 271.613 326.374 272.28 328.134 272.28ZM327.534 275.64C324.974 275.64 322.774 274.627 320.934 272.6C319.12 270.547 318.214 268.08 318.214 265.2C318.214 262.32 319.12 259.853 320.934 257.8C322.774 255.773 324.974 254.76 327.534 254.76C328.974 254.76 330.28 255.067 331.454 255.68C332.654 256.293 333.574 257.107 334.214 258.12H334.374L334.214 255.4V246.36H337.894V275H334.374V272.28H334.214C333.574 273.293 332.654 274.107 331.454 274.72C330.28 275.333 328.974 275.64 327.534 275.64ZM350.985 275.64C348.105 275.64 345.732 274.653 343.865 272.68C341.999 270.707 341.065 268.213 341.065 265.2C341.065 262.213 341.972 259.733 343.785 257.76C345.599 255.76 347.919 254.76 350.745 254.76C353.652 254.76 355.959 255.707 357.665 257.6C359.399 259.467 360.265 262.093 360.265 265.48L360.225 265.88H344.825C344.879 267.8 345.519 269.347 346.745 270.52C347.972 271.693 349.439 272.28 351.145 272.28C353.492 272.28 355.332 271.107 356.665 268.76L359.945 270.36C359.065 272.013 357.839 273.307 356.265 274.24C354.719 275.173 352.959 275.64 350.985 275.64ZM345.105 262.84H356.345C356.239 261.48 355.679 260.36 354.665 259.48C353.679 258.573 352.345 258.12 350.665 258.12C349.279 258.12 348.079 258.547 347.065 259.4C346.079 260.253 345.425 261.4 345.105 262.84ZM372.76 275H369.08L361.16 255.4H365.16L370.92 270.6H371L376.84 255.4H380.76L372.76 275Z" fill="black"/>
<defs>
<filter id="filter0_d_9779_113" x="0" y="0" width="440" height="310.5" filterUnits="userSpaceOnUse" color-interpolation-filters="sRGB">
<feFlood flood-opacity="0" result="BackgroundImageFix"/>
<feColorMatrix in="SourceAlpha" type="matrix" values="0 0 0 0 0 0 0 0 0 0 0 0 0 0 0 0 0 0 127 0" result="hardAlpha"/>
<feOffset dx="-12" dy="12"/>
<feComposite in2="hardAlpha" operator="out"/>
<feColorMatrix type="matrix" values="0 0 0 0 0.203922 0 0 0 0 0.658824 0 0 0 0 0.32549 0 0 0 1 0"/>
<feBlend mode="normal" in2="BackgroundImageFix" result="effect1_dropShadow_9779_113"/>
<feBlend mode="normal" in="SourceGraphic" in2="effect1_dropShadow_9779_113" result="shape"/>
</filter>
</defs>
</svg>
