<svg width="440" height="311" viewBox="0 0 440 311" fill="none" xmlns="http://www.w3.org/2000/svg">
<path d="M241.5 14H33C24.1634 14 17 21.1634 17 30V139C17 147.837 24.1634 155 33 155H128.5C135.956 155 142 161.044 142 168.5C142 175.956 135.956 182 128.5 182H16C7.16344 182 0 189.163 0 198V227C0 235.837 7.16344 243 16 243H158.5C167.337 243 174.5 250.163 174.5 259V294.5C174.5 303.337 181.663 310.5 190.5 310.5H383.5C392.337 310.5 399.5 303.337 399.5 294.5V259C399.5 250.163 392.337 243 383.5 243H292.25C284.104 243 277.5 236.396 277.5 228.25C277.5 220.104 284.104 213.5 292.25 213.5H410C418.837 213.5 426 206.337 426 197.5V164C426 155.163 418.837 148 410 148H273.5C264.663 148 257.5 140.837 257.5 132V30C257.5 21.1634 250.337 14 241.5 14Z" fill="#34A853"/>
<path d="M47 1H255.5C263.784 1 270.5 7.71573 270.5 16V118C270.5 127.389 278.111 135 287.5 135H424C432.284 135 439 141.716 439 150V183.5C439 191.784 432.284 198.5 424 198.5H306.25C297.552 198.5 290.5 205.552 290.5 214.25C290.5 222.948 297.552 230 306.25 230H397.5C405.784 230 412.5 236.716 412.5 245V280.5C412.5 288.784 405.784 295.5 397.5 295.5H204.5C196.216 295.5 189.5 288.784 189.5 280.5V245C189.5 235.611 181.889 228 172.5 228H30C21.7157 228 15 221.284 15 213V184C15 175.716 21.7157 169 30 169H142.5C150.508 169 157 162.508 157 154.5C157 146.492 150.508 140 142.5 140H47C38.7157 140 32 133.284 32 125V16C32 7.71573 38.7157 1 47 1Z" fill="white" stroke="black" stroke-width="2"/>
<path d="M107.96 51.32V89H102.44V51.32H90.44V46.04H119.96V51.32H107.96ZM133.158 89.96C128.838 89.96 125.278 88.48 122.478 85.52C119.678 82.56 118.278 78.82 118.278 74.3C118.278 69.82 119.638 66.1 122.358 63.14C125.078 60.14 128.558 58.64 132.798 58.64C137.158 58.64 140.618 60.06 143.178 62.9C145.778 65.7 147.078 69.64 147.078 74.72L147.018 75.32H123.918C123.998 78.2 124.958 80.52 126.798 82.28C128.638 84.04 130.838 84.92 133.398 84.92C136.918 84.92 139.678 83.16 141.678 79.64L146.598 82.04C145.278 84.52 143.438 86.46 141.078 87.86C138.758 89.26 136.118 89.96 133.158 89.96ZM124.338 70.76H141.198C141.038 68.72 140.198 67.04 138.678 65.72C137.198 64.36 135.198 63.68 132.678 63.68C130.598 63.68 128.798 64.32 127.278 65.6C125.798 66.88 124.818 68.6 124.338 70.76ZM165.859 89.96C161.499 89.96 157.879 88.48 154.999 85.52C152.159 82.48 150.739 78.74 150.739 74.3C150.739 69.78 152.159 66.04 154.999 63.08C157.879 60.12 161.499 58.64 165.859 58.64C168.859 58.64 171.479 59.4 173.719 60.92C175.959 62.4 177.639 64.46 178.759 67.1L173.719 69.2C172.159 65.52 169.419 63.68 165.499 63.68C162.979 63.68 160.799 64.7 158.959 66.74C157.159 68.78 156.259 71.3 156.259 74.3C156.259 77.3 157.159 79.82 158.959 81.86C160.799 83.9 162.979 84.92 165.499 84.92C169.539 84.92 172.379 83.08 174.019 79.4L178.939 81.5C177.859 84.14 176.159 86.22 173.839 87.74C171.559 89.22 168.899 89.96 165.859 89.96ZM183.766 46.04H189.286V59.6L189.046 63.68H189.286C190.126 62.24 191.406 61.04 193.126 60.08C194.886 59.12 196.706 58.64 198.586 58.64C202.186 58.64 204.946 59.68 206.866 61.76C208.826 63.8 209.806 66.72 209.806 70.52V89H204.286V71.6C204.286 66.32 201.946 63.68 197.266 63.68C195.026 63.68 193.126 64.62 191.566 66.5C190.046 68.34 189.286 70.5 189.286 72.98V89H183.766V46.04Z" fill="black"/>
<path d="M316.28 157.88L311.6 170.8H321.12L316.44 157.88H316.28ZM307.56 182H303.48L314.28 153.36H318.44L329.24 182H325.16L322.4 174.24H310.36L307.56 182ZM336.279 182H332.599V153.36H336.279V182ZM355.572 153.36L343.692 182H340.252L352.132 153.36H355.572ZM363.193 182H359.513V153.36H363.193L373.153 170.8H373.313L383.273 153.36H386.953V182H383.273V165L383.433 160.2H383.273L374.313 175.92H372.153L363.193 160.2H363.033L363.193 165V182ZM408.796 182H392.716V153.36H396.396V178.48H408.796V182Z" fill="black"/>
<path d="M71.4 184.36H75.24L67.6 213H63.84L57.68 194.12H57.52L51.36 213H47.6L39.64 184.36H43.48L49.52 206.88H49.68L55.88 188.2H59.32L65.52 206.88H65.68L71.4 184.36ZM84.7275 213.64C81.8475 213.64 79.4742 212.653 77.6075 210.68C75.7408 208.707 74.8075 206.213 74.8075 203.2C74.8075 200.213 75.7142 197.733 77.5275 195.76C79.3408 193.76 81.6608 192.76 84.4875 192.76C87.3942 192.76 89.7008 193.707 91.4075 195.6C93.1408 197.467 94.0075 200.093 94.0075 203.48L93.9675 203.88H78.5675C78.6208 205.8 79.2608 207.347 80.4875 208.52C81.7142 209.693 83.1808 210.28 84.8875 210.28C87.2342 210.28 89.0742 209.107 90.4075 206.76L93.6875 208.36C92.8075 210.013 91.5808 211.307 90.0075 212.24C88.4608 213.173 86.7008 213.64 84.7275 213.64ZM78.8475 200.84H90.0875C89.9808 199.48 89.4208 198.36 88.4075 197.48C87.4208 196.573 86.0875 196.12 84.4075 196.12C83.0208 196.12 81.8208 196.547 80.8075 197.4C79.8208 198.253 79.1675 199.4 78.8475 200.84ZM107.733 213.64C106.293 213.64 104.973 213.333 103.773 212.72C102.599 212.107 101.693 211.293 101.053 210.28H100.893V213H97.3728V184.36H101.053V193.4L100.893 196.12H101.053C101.693 195.107 102.599 194.293 103.773 193.68C104.973 193.067 106.293 192.76 107.733 192.76C110.319 192.76 112.506 193.773 114.293 195.8C116.133 197.853 117.053 200.32 117.053 203.2C117.053 206.107 116.133 208.573 114.293 210.6C112.506 212.627 110.319 213.64 107.733 213.64ZM107.133 210.28C108.893 210.28 110.373 209.613 111.573 208.28C112.773 206.973 113.373 205.28 113.373 203.2C113.373 201.147 112.773 199.453 111.573 198.12C110.373 196.787 108.893 196.12 107.133 196.12C105.346 196.12 103.853 196.787 102.653 198.12C101.479 199.453 100.893 201.147 100.893 203.2C100.893 205.28 101.479 206.987 102.653 208.32C103.853 209.627 105.346 210.28 107.133 210.28ZM138.009 210.28C139.822 210.28 141.302 209.627 142.449 208.32C143.649 207.013 144.249 205.307 144.249 203.2C144.249 201.147 143.649 199.453 142.449 198.12C141.275 196.787 139.795 196.12 138.009 196.12C136.249 196.12 134.769 196.787 133.569 198.12C132.369 199.453 131.769 201.147 131.769 203.2C131.769 205.28 132.369 206.973 133.569 208.28C134.769 209.613 136.249 210.28 138.009 210.28ZM137.409 213.64C134.849 213.64 132.649 212.627 130.809 210.6C128.995 208.547 128.089 206.08 128.089 203.2C128.089 200.32 128.995 197.853 130.809 195.8C132.649 193.773 134.849 192.76 137.409 192.76C138.849 192.76 140.155 193.067 141.329 193.68C142.529 194.293 143.449 195.107 144.089 196.12H144.249L144.089 193.4V184.36H147.769V213H144.249V210.28H144.089C143.449 211.293 142.529 212.107 141.329 212.72C140.155 213.333 138.849 213.64 137.409 213.64ZM160.86 213.64C157.98 213.64 155.607 212.653 153.74 210.68C151.874 208.707 150.94 206.213 150.94 203.2C150.94 200.213 151.847 197.733 153.66 195.76C155.474 193.76 157.794 192.76 160.62 192.76C163.527 192.76 165.834 193.707 167.54 195.6C169.274 197.467 170.14 200.093 170.14 203.48L170.1 203.88H154.7C154.754 205.8 155.394 207.347 156.62 208.52C157.847 209.693 159.314 210.28 161.02 210.28C163.367 210.28 165.207 209.107 166.54 206.76L169.82 208.36C168.94 210.013 167.714 211.307 166.14 212.24C164.594 213.173 162.834 213.64 160.86 213.64ZM154.98 200.84H166.22C166.114 199.48 165.554 198.36 164.54 197.48C163.554 196.573 162.22 196.12 160.54 196.12C159.154 196.12 157.954 196.547 156.94 197.4C155.954 198.253 155.3 199.4 154.98 200.84ZM182.635 213H178.955L171.035 193.4H175.035L180.795 208.6H180.875L186.715 193.4H190.635L182.635 213Z" fill="black"/>
<path d="M250.28 249.88L245.6 262.8H255.12L250.44 249.88H250.28ZM241.56 274H237.48L248.28 245.36H252.44L263.24 274H259.16L256.4 266.24H244.36L241.56 274ZM275.754 271.28C277.514 271.28 278.994 270.613 280.194 269.28C281.394 267.973 281.994 266.28 281.994 264.2C281.994 262.147 281.394 260.453 280.194 259.12C278.994 257.787 277.514 257.12 275.754 257.12C273.967 257.12 272.474 257.787 271.274 259.12C270.101 260.453 269.514 262.147 269.514 264.2C269.514 266.28 270.101 267.987 271.274 269.32C272.474 270.627 273.967 271.28 275.754 271.28ZM276.354 274.64C274.914 274.64 273.594 274.333 272.394 273.72C271.221 273.107 270.314 272.293 269.674 271.28H269.514L269.674 274V282.64H265.994V254.4H269.514V257.12H269.674C270.314 256.107 271.221 255.293 272.394 254.68C273.594 254.067 274.914 253.76 276.354 253.76C278.941 253.76 281.127 254.773 282.914 256.8C284.754 258.853 285.674 261.32 285.674 264.2C285.674 267.107 284.754 269.573 282.914 271.6C281.127 273.627 278.941 274.64 276.354 274.64ZM298.254 271.28C300.014 271.28 301.494 270.613 302.694 269.28C303.894 267.973 304.494 266.28 304.494 264.2C304.494 262.147 303.894 260.453 302.694 259.12C301.494 257.787 300.014 257.12 298.254 257.12C296.467 257.12 294.974 257.787 293.774 259.12C292.601 260.453 292.014 262.147 292.014 264.2C292.014 266.28 292.601 267.987 293.774 269.32C294.974 270.627 296.467 271.28 298.254 271.28ZM298.854 274.64C297.414 274.64 296.094 274.333 294.894 273.72C293.721 273.107 292.814 272.293 292.174 271.28H292.014L292.174 274V282.64H288.494V254.4H292.014V257.12H292.174C292.814 256.107 293.721 255.293 294.894 254.68C296.094 254.067 297.414 253.76 298.854 253.76C301.441 253.76 303.627 254.773 305.414 256.8C307.254 258.853 308.174 261.32 308.174 264.2C308.174 267.107 307.254 269.573 305.414 271.6C303.627 273.627 301.441 274.64 298.854 274.64ZM329.134 271.28C330.947 271.28 332.427 270.627 333.574 269.32C334.774 268.013 335.374 266.307 335.374 264.2C335.374 262.147 334.774 260.453 333.574 259.12C332.4 257.787 330.92 257.12 329.134 257.12C327.374 257.12 325.894 257.787 324.694 259.12C323.494 260.453 322.894 262.147 322.894 264.2C322.894 266.28 323.494 267.973 324.694 269.28C325.894 270.613 327.374 271.28 329.134 271.28ZM328.534 274.64C325.974 274.64 323.774 273.627 321.934 271.6C320.12 269.547 319.214 267.08 319.214 264.2C319.214 261.32 320.12 258.853 321.934 256.8C323.774 254.773 325.974 253.76 328.534 253.76C329.974 253.76 331.28 254.067 332.454 254.68C333.654 255.293 334.574 256.107 335.214 257.12H335.374L335.214 254.4V245.36H338.894V274H335.374V271.28H335.214C334.574 272.293 333.654 273.107 332.454 273.72C331.28 274.333 329.974 274.64 328.534 274.64ZM351.985 274.64C349.105 274.64 346.732 273.653 344.865 271.68C342.999 269.707 342.065 267.213 342.065 264.2C342.065 261.213 342.972 258.733 344.785 256.76C346.599 254.76 348.919 253.76 351.745 253.76C354.652 253.76 356.959 254.707 358.665 256.6C360.399 258.467 361.265 261.093 361.265 264.48L361.225 264.88H345.825C345.879 266.8 346.519 268.347 347.745 269.52C348.972 270.693 350.439 271.28 352.145 271.28C354.492 271.28 356.332 270.107 357.665 267.76L360.945 269.36C360.065 271.013 358.839 272.307 357.265 273.24C355.719 274.173 353.959 274.64 351.985 274.64ZM346.105 261.84H357.345C357.239 260.48 356.679 259.36 355.665 258.48C354.679 257.573 353.345 257.12 351.665 257.12C350.279 257.12 349.079 257.547 348.065 258.4C347.079 259.253 346.425 260.4 346.105 261.84ZM373.76 274H370.08L362.16 254.4H366.16L371.92 269.6H372L377.84 254.4H381.76L373.76 274Z" fill="black"/>
</svg>
