<svg width="520" height="279" viewBox="0 0 520 279" fill="none" xmlns="http://www.w3.org/2000/svg">
<path d="M49.0498 200.619C39.7 193.91 30.5239 187.561 21.6437 180.821C6.24429 169.134 -0.947545 153.419 0.0998732 134.155C1.20979 113.742 20.1101 92.5567 40.3813 88.6783C56.0828 85.6741 70.5231 88.4858 83.6345 97.9421C123.322 126.566 163.044 155.14 202.816 183.646C219.578 195.661 226.94 212.177 224.88 232.28C222.404 256.44 205.166 273.042 182.62 277.579C167.89 280.543 154.913 276.636 143.024 268.106C111.784 245.695 80.577 223.24 49.0498 200.619Z" fill="#4285F3"/>
<path d="M62.9905 67.5335C90.0553 48.0905 116.807 28.8239 143.588 9.5967C168.218 -8.08693 206.672 -0.628723 220.305 29.3303C230.011 50.6595 225.923 76.954 205.556 92.3398C187.625 105.885 169.113 118.659 150.85 131.763C150.458 132.045 149.974 132.197 149.378 132.484C129.941 118.518 110.409 104.619 91.029 90.5095C79.7012 82.2623 67.4827 76.9951 53.1948 77.5701C52.6014 77.594 51.9992 77.3959 49.9621 77.0732C54.8741 73.4664 58.7821 70.5968 62.9905 67.5335Z" fill="#E94335"/>
<path d="M519.159 139.574C518.458 160.254 509.337 175.54 491.458 184.816C473.228 194.273 454.851 193.228 438.053 181.411C405.099 158.23 372.551 134.472 339.838 110.949C331.456 104.922 322.879 99.1451 314.756 92.7886C297.676 79.4237 290.947 61.5457 295.527 40.597C300.165 19.3832 314.014 5.52222 335.375 1.23287C348.91 -1.48498 362.652 0.0076313 374.555 8.56254C416.197 38.4913 457.964 68.2487 499.389 98.4738C512.839 108.287 519.145 122.353 519.159 139.574Z" fill="#34A853"/>
<path d="M329.939 275.976C312.734 269.727 301.758 257.915 296.08 241.12C289.768 222.449 297.057 198.855 313.508 186.348C328.573 174.894 344.139 164.099 359.486 153.018C362.838 150.597 366.201 148.192 369.992 145.468C379.993 152.645 390.065 159.885 400.149 167.106C411.479 175.22 422.699 183.497 434.195 191.369C444.191 198.214 455.683 200.903 468.956 201.809C462.039 206.783 456.156 211.014 450.272 215.245C426.019 232.682 401.742 250.085 377.526 267.572C367.418 274.872 356.231 278.871 343.757 278.494C339.23 278.357 334.739 277.036 329.939 275.976Z" fill="#F8AA00"/>
</svg>
