<?xml version="1.0" standalone="no"?>
<!DOCTYPE svg PUBLIC "-//W3C//DTD SVG 20010904//EN"
 "http://www.w3.org/TR/2001/REC-SVG-20010904/DTD/svg10.dtd">
<svg version="1.0" xmlns="http://www.w3.org/2000/svg"
 width="816.000000pt" height="341.000000pt" viewBox="0 0 816.000000 341.000000"
 preserveAspectRatio="xMidYMid meet">

<g transform="translate(0.000000,341.000000) scale(0.100000,-0.100000)"
fill="#000000" stroke="none">
<path d="M166 3394 c-57 -21 -102 -58 -133 -112 l-28 -47 0 -1050 0 -1050 22
-41 c28 -53 91 -107 142 -122 28 -9 271 -12 884 -12 574 0 862 -4 897 -11 64
-14 127 -61 160 -119 25 -44 25 -48 30 -340 5 -272 7 -299 26 -340 25 -54 69
-100 121 -126 37 -19 111 -19 2847 -22 1853 -1 2821 1 2846 8 55 15 115 63
147 117 l28 48 0 895 c0 837 -1 897 -18 927 -24 45 -77 96 -123 119 -38 18
-75 19 -994 24 -1055 6 -990 1 -1058 70 -69 69 -66 48 -72 550 -5 410 -7 459
-23 495 -25 55 -73 103 -132 131 l-50 24 -2740 -1 c-2352 0 -2746 -2 -2779
-15z m5536 -4 c56 -16 119 -69 147 -125 l26 -49 5 -456 c4 -360 8 -460 19
-480 29 -54 64 -91 109 -117 l47 -28 960 -5 960 -5 41 -22 c53 -28 107 -91
122 -142 9 -28 12 -273 12 -893 0 -949 2 -911 -66 -982 -19 -20 -49 -44 -67
-53 -30 -17 -187 -18 -2853 -21 l-2820 -2 -54 27 c-67 34 -114 94 -129 163 -6
29 -11 160 -11 309 0 288 -2 300 -68 373 -20 23 -57 51 -82 62 -44 21 -59 21
-936 26 l-891 5 -49 30 c-30 19 -60 49 -79 79 l-30 49 -3 1026 c-2 754 0 1037
9 1068 16 57 72 121 133 149 l51 24 2730 0 c1850 0 2742 -3 2767 -10z"/>
</g>
</svg>
