<svg width="400" height="400" viewBox="0 0 400 400" fill="none" xmlns="http://www.w3.org/2000/svg">
<path d="M20 2H380C389.941 2 398 10.0589 398 20V140.181C398 150.122 389.941 158.181 380 158.181H336.63C324.48 158.181 314.63 168.031 314.63 180.181V249.684C314.63 261.834 324.48 271.684 336.63 271.684H380C389.941 271.684 398 279.742 398 289.684V380C398 389.941 389.941 398 380 398H20C10.0589 398 2 389.941 2 380V332.217C2.00023 322.276 10.059 314.217 20 314.217H68.6914C80.8417 314.217 90.6914 304.367 90.6914 292.217V265.249C90.6914 253.099 80.8417 243.249 68.6914 243.249H20C10.0589 243.249 2.00008 235.19 2 225.249V20C2 10.0589 10.0589 2 20 2Z" fill="black" stroke="black" stroke-width="4"/>
</svg>
