<svg width="400" height="400" viewBox="0 0 400 400" fill="none" xmlns="http://www.w3.org/2000/svg">
<path d="M380 0H20C8.95431 0 0 8.95429 0 20V225.249C0 236.295 8.95428 245.249 20 245.249H68.6918C79.7375 245.249 88.6918 254.203 88.6918 265.249V292.217C88.6918 303.263 79.7375 312.217 68.6918 312.217H20C8.95431 312.217 0 321.172 0 332.217V380C0 391.046 8.95431 400 20 400H380C391.046 400 400 391.046 400 380V289.683C400 278.638 391.046 269.683 380 269.683H336.63C325.584 269.683 316.63 260.729 316.63 249.683V180.181C316.63 169.135 325.584 160.181 336.63 160.181H380C391.046 160.181 400 151.227 400 140.181V20C400 8.9543 391.046 0 380 0Z" fill="black"/>
</svg>
