<svg width="400" height="400" viewBox="0 0 400 400" fill="none" xmlns="http://www.w3.org/2000/svg">
<path d="M20 2H380C389.941 2 398 10.0589 398 20V380C398 389.941 389.941 398 380 398H20C10.0589 398 2 389.941 2 380V290.524C2 280.583 10.0589 272.524 20 272.524H47.3115C59.4617 272.524 69.3115 262.675 69.3115 250.524V173.346C69.3115 161.195 59.4617 151.346 47.3115 151.346H20C10.059 151.346 2.00017 143.287 2 133.346V20C2.00001 10.0589 10.0589 2 20 2Z" fill="black" stroke="black" stroke-width="4"/>
</svg>
