<svg width="400" height="400" viewBox="0 0 400 400" fill="none" xmlns="http://www.w3.org/2000/svg">
<path d="M20 2H380C389.941 2.00001 398 10.0589 398 20V380C398 389.941 389.941 398 380 398H167.583C157.642 398 149.583 389.941 149.583 380V363.564C149.583 351.414 139.733 341.565 127.583 341.564H72.9258C60.7757 341.565 50.9258 351.414 50.9258 363.564V380C50.9258 389.941 42.8669 398 32.9258 398H20C10.0589 398 2 389.941 2 380V20C2 10.0589 10.0589 2 20 2Z" fill="black" stroke="black" stroke-width="4"/>
</svg>
