<svg width="400" height="400" viewBox="0 0 400 400" fill="none" xmlns="http://www.w3.org/2000/svg">
<path d="M20 2H98.8086C108.75 2.00022 116.809 10.059 116.809 20V33.0615C116.809 45.2117 126.658 55.0615 138.809 55.0615H241.452C253.602 55.0615 263.452 45.2116 263.452 33.0615V20C263.452 10.2141 271.262 2.25209 280.988 2.00586L281.452 2H380C389.941 2 398 10.0589 398 20V380C398 389.941 389.941 398 380 398H344.768C334.826 398 326.768 389.941 326.768 380V366.938C326.767 354.788 316.918 344.939 304.768 344.938H257.616C245.466 344.939 235.616 354.788 235.616 366.938V380C235.616 389.941 227.557 398 217.616 398H20C10.0589 398 2 389.941 2 380V366.938C2.00015 356.997 10.059 348.938 20 348.938H30.8916C43.0419 348.938 52.8916 339.089 52.8916 326.938V190.975C52.8914 178.825 43.0417 168.975 30.8916 168.975H20C10.0589 168.975 2 160.916 2 150.975V20C2 10.0589 10.0589 2 20 2Z" fill="black" stroke="black" stroke-width="4"/>
</svg>
