<svg width="400" height="400" viewBox="0 0 400 400" fill="none" xmlns="http://www.w3.org/2000/svg">
<path d="M98.8082 0H20C8.95431 0 0 8.9543 0 20V150.975C0 162.021 8.95431 170.975 20 170.975H30.892C41.9377 170.975 50.892 179.929 50.892 190.975V326.939C50.892 337.984 41.9377 346.939 30.892 346.939H20C8.9543 346.939 0 355.893 0 366.939V380C0 391.046 8.95432 400 20 400H217.616C228.662 400 237.616 391.046 237.616 380V366.939C237.616 355.893 246.571 346.939 257.616 346.939H304.767C315.813 346.939 324.767 355.893 324.767 366.939V380C324.767 391.046 333.721 400 344.767 400H380C391.046 400 400 391.046 400 380V20C400 8.95431 391.046 0 380 0H281.453C270.407 0 261.453 8.95428 261.453 20V33.0612C261.453 44.1069 252.498 53.0612 241.453 53.0612H138.808C127.762 53.0612 118.808 44.1069 118.808 33.0612V20C118.808 8.9543 109.854 0 98.8082 0Z" fill="black"/>
</svg>
